<?xml version="1.0" encoding="UTF-8" standalone="no"?><svg xmlns="http://www.w3.org/2000/svg" xmlns:xlink="http://www.w3.org/1999/xlink" contentScriptType="application/ecmascript" contentStyleType="text/css" height="530px" preserveAspectRatio="none" style="width:1433px;height:530px;" version="1.1" viewBox="0 0 1433 530" width="1433.75px" zoomAndPan="magnify"><defs><filter height="300%" id="fds3syomjgv9g" width="300%" x="-1" y="-1"><feGaussianBlur result="blurOut" stdDeviation="2.5"/><feColorMatrix in="blurOut" result="blurOut2" type="matrix" values="0 0 0 0 0 0 0 0 0 0 0 0 0 0 0 0 0 0 .4 0"/><feOffset dx="5.0" dy="5.0" in="blurOut2" result="blurOut3"/><feBlend in="SourceGraphic" in2="blurOut3" mode="normal"/></filter></defs><g><text fill="#000000" font-family="sans-serif" font-size="22.5" lengthAdjust="spacingAndGlyphs" textLength="332.5" x="555" y="25.7849">基于GitHub的实验管理平台--类图</text><!--MD5=[c0e9ec5cd1f96ff4afe02d244cdf9dea]
class USERS--><rect fill="#FEFECE" filter="url(#fds3syomjgv9g)" height="172.6721" id="USERS" style="stroke: #A80036; stroke-width: 1.875;" width="287.5" x="7.5" y="40.7288"/><ellipse cx="119.6875" cy="60.7288" fill="#ADD1B2" rx="13.75" ry="13.75" style="stroke: #A80036; stroke-width: 1.25;"/><path d="M119.2969,68.2288 Q116.875,68.2288 115.4688,66.4514 Q114.0625,64.6545 114.0625,60.9631 Q114.0625,57.8381 115.5469,55.7288 Q117.0313,53.6194 119.6094,53.6194 Q120.1758,53.6194 120.7227,53.6194 Q121.2695,53.6194 121.6602,53.6194 Q121.9727,53.6194 122.168,53.6194 Q122.3828,53.6194 122.8906,53.6194 L123.7695,58.2288 L122.4414,58.2288 Q121.8945,56.8616 121.1719,56.2952 Q120.4688,55.7288 119.3164,55.7288 Q117.8711,55.7288 117.0117,57.2131 Q116.1719,58.678 116.1719,60.9631 Q116.1719,63.4827 116.8164,64.8108 Q117.4805,66.1194 119.2383,66.1194 Q120.3906,66.1194 121.1914,65.4163 Q122.0117,64.6936 122.4414,62.9553 L123.7305,63.5999 Q123.2422,65.7874 122.0703,67.0178 Q120.8984,68.2288 119.2969,68.2288 Z "/><text fill="#000000" font-family="sans-serif" font-size="15" lengthAdjust="spacingAndGlyphs" textLength="52.5" x="145.3125" y="67.6758">USERS</text><line style="stroke: #A80036; stroke-width: 1.875;" x1="8.75" x2="293.75" y1="80.7288" y2="80.7288"/><text fill="#000000" font-family="sans-serif" font-size="13.75" font-weight="bold" lengthAdjust="spacingAndGlyphs" textLength="53.75" x="15" y="101.4862">USER_ID</text><text fill="#000000" font-family="sans-serif" font-size="13.75" lengthAdjust="spacingAndGlyphs" textLength="66.25" x="72.5" y="101.4862">（用户ID）</text><text fill="#000000" font-family="sans-serif" font-size="13.75" lengthAdjust="spacingAndGlyphs" textLength="150" x="15" y="120.2649">NAME （用户真实姓名）</text><text fill="#000000" font-family="sans-serif" font-size="13.75" lengthAdjust="spacingAndGlyphs" textLength="250" x="15" y="139.0436">GITHUB_USERNAME （用户GitHub账号）</text><text fill="#000000" font-family="sans-serif" font-size="13.75" lengthAdjust="spacingAndGlyphs" textLength="272.5" x="15" y="157.8223">UPDATE_DATE （用户GitHub账号修改日期）</text><text fill="#000000" font-family="sans-serif" font-size="13.75" lengthAdjust="spacingAndGlyphs" textLength="161.25" x="15" y="176.601">PASSWORD （用户密码）</text><text fill="#000000" font-family="sans-serif" font-size="13.75" lengthAdjust="spacingAndGlyphs" textLength="167.5" x="15" y="195.3796">DISABLE （用户是否禁用）</text><line style="stroke: #A80036; stroke-width: 1.875;" x1="8.75" x2="293.75" y1="203.4009" y2="203.4009"/><!--MD5=[ba37beb79786be8c6f1581f55505a7bd]
class STUDENTS--><rect fill="#FEFECE" filter="url(#fds3syomjgv9g)" height="135.1147" id="STUDENTS" style="stroke: #A80036; stroke-width: 1.875;" width="216.25" x="339.375" y="59.4788"/><ellipse cx="401.5625" cy="79.4788" fill="#ADD1B2" rx="13.75" ry="13.75" style="stroke: #A80036; stroke-width: 1.25;"/><path d="M401.1719,86.9788 Q398.75,86.9788 397.3438,85.2014 Q395.9375,83.4045 395.9375,79.7131 Q395.9375,76.5881 397.4219,74.4788 Q398.9063,72.3694 401.4844,72.3694 Q402.0508,72.3694 402.5977,72.3694 Q403.1445,72.3694 403.5352,72.3694 Q403.8477,72.3694 404.043,72.3694 Q404.2578,72.3694 404.7656,72.3694 L405.6445,76.9788 L404.3164,76.9788 Q403.7695,75.6116 403.0469,75.0452 Q402.3438,74.4788 401.1914,74.4788 Q399.7461,74.4788 398.8867,75.9631 Q398.0469,77.428 398.0469,79.7131 Q398.0469,82.2327 398.6914,83.5608 Q399.3555,84.8694 401.1133,84.8694 Q402.2656,84.8694 403.0664,84.1663 Q403.8867,83.4436 404.3164,81.7053 L405.6055,82.3499 Q405.1172,84.5374 403.9453,85.7678 Q402.7734,86.9788 401.1719,86.9788 Z "/><text fill="#000000" font-family="sans-serif" font-size="15" lengthAdjust="spacingAndGlyphs" textLength="81.25" x="427.1875" y="86.4258">STUDENTS</text><line style="stroke: #A80036; stroke-width: 1.875;" x1="340.625" x2="554.375" y1="99.4788" y2="99.4788"/><text fill="#000000" font-family="sans-serif" font-size="13.75" font-weight="bold" lengthAdjust="spacingAndGlyphs" textLength="73.75" x="346.875" y="120.2362">student_id</text><text fill="#000000" font-family="sans-serif" font-size="13.75" lengthAdjust="spacingAndGlyphs" textLength="55" x="424.375" y="120.2362">（学号）</text><text fill="#000000" font-family="sans-serif" font-size="13.75" lengthAdjust="spacingAndGlyphs" textLength="91.25" x="346.875" y="139.0149">class （班级）</text><text fill="#000000" font-family="sans-serif" font-size="13.75" lengthAdjust="spacingAndGlyphs" textLength="148.75" x="346.875" y="157.7936">result_sum（成绩汇总）</text><text fill="#000000" font-family="sans-serif" font-size="13.75" lengthAdjust="spacingAndGlyphs" textLength="201.25" x="346.875" y="176.5723">web_sum （网站正确与否汇总）</text><line style="stroke: #A80036; stroke-width: 1.875;" x1="340.625" x2="554.375" y1="184.5935" y2="184.5935"/><!--MD5=[471621018d5a4ff362f603edad23fe8d]
class TEACHERS--><rect fill="#FEFECE" filter="url(#fds3syomjgv9g)" height="116.3361" id="TEACHERS" style="stroke: #A80036; stroke-width: 1.875;" width="212.5" x="45" y="344.4788"/><ellipse cx="105.3125" cy="364.4788" fill="#ADD1B2" rx="13.75" ry="13.75" style="stroke: #A80036; stroke-width: 1.25;"/><path d="M104.9219,371.9788 Q102.5,371.9788 101.0938,370.2014 Q99.6875,368.4045 99.6875,364.7131 Q99.6875,361.5881 101.1719,359.4788 Q102.6563,357.3694 105.2344,357.3694 Q105.8008,357.3694 106.3477,357.3694 Q106.8945,357.3694 107.2852,357.3694 Q107.5977,357.3694 107.793,357.3694 Q108.0078,357.3694 108.5156,357.3694 L109.3945,361.9788 L108.0664,361.9788 Q107.5195,360.6116 106.7969,360.0452 Q106.0938,359.4788 104.9414,359.4788 Q103.4961,359.4788 102.6367,360.9631 Q101.7969,362.428 101.7969,364.7131 Q101.7969,367.2327 102.4414,368.5608 Q103.1055,369.8694 104.8633,369.8694 Q106.0156,369.8694 106.8164,369.1663 Q107.6367,368.4436 108.0664,366.7053 L109.3555,367.3499 Q108.8672,369.5374 107.6953,370.7678 Q106.5234,371.9788 104.9219,371.9788 Z "/><text fill="#000000" font-family="sans-serif" font-size="15" lengthAdjust="spacingAndGlyphs" textLength="81.25" x="130.9375" y="371.4258">TEACHERS</text><line style="stroke: #A80036; stroke-width: 1.875;" x1="46.25" x2="256.25" y1="384.4788" y2="384.4788"/><text fill="#000000" font-family="sans-serif" font-size="13.75" font-weight="bold" lengthAdjust="spacingAndGlyphs" textLength="81.25" x="52.5" y="405.2362">TEACHER_ID</text><text fill="#000000" font-family="sans-serif" font-size="13.75" lengthAdjust="spacingAndGlyphs" textLength="82.5" x="137.5" y="405.2362">（老师工号）</text><text fill="#000000" font-family="sans-serif" font-size="13.75" font-weight="bold" lengthAdjust="spacingAndGlyphs" textLength="53.75" x="52.5" y="424.0149">USER_ID</text><text fill="#000000" font-family="sans-serif" font-size="13.75" lengthAdjust="spacingAndGlyphs" textLength="66.25" x="110" y="424.0149">（用户ID）</text><text fill="#000000" font-family="sans-serif" font-size="13.75" lengthAdjust="spacingAndGlyphs" textLength="197.5" x="52.5" y="442.7936">DEPARTMENT （老师所属学院）</text><line style="stroke: #A80036; stroke-width: 1.875;" x1="46.25" x2="256.25" y1="450.8148" y2="450.8148"/><!--MD5=[198186f9fcc9add1803581ad2374c930]
class COURSES--><rect fill="#FEFECE" filter="url(#fds3syomjgv9g)" height="172.6721" id="COURSES" style="stroke: #A80036; stroke-width: 1.875;" width="206.25" x="630.625" y="316.3538"/><ellipse cx="690.9375" cy="336.3538" fill="#ADD1B2" rx="13.75" ry="13.75" style="stroke: #A80036; stroke-width: 1.25;"/><path d="M690.5469,343.8538 Q688.125,343.8538 686.7188,342.0764 Q685.3125,340.2795 685.3125,336.5881 Q685.3125,333.4631 686.7969,331.3538 Q688.2813,329.2444 690.8594,329.2444 Q691.4258,329.2444 691.9727,329.2444 Q692.5195,329.2444 692.9102,329.2444 Q693.2227,329.2444 693.418,329.2444 Q693.6328,329.2444 694.1406,329.2444 L695.0195,333.8538 L693.6914,333.8538 Q693.1445,332.4866 692.4219,331.9202 Q691.7188,331.3538 690.5664,331.3538 Q689.1211,331.3538 688.2617,332.8381 Q687.4219,334.303 687.4219,336.5881 Q687.4219,339.1077 688.0664,340.4358 Q688.7305,341.7444 690.4883,341.7444 Q691.6406,341.7444 692.4414,341.0413 Q693.2617,340.3186 693.6914,338.5803 L694.9805,339.2249 Q694.4922,341.4124 693.3203,342.6428 Q692.1484,343.8538 690.5469,343.8538 Z "/><text fill="#000000" font-family="sans-serif" font-size="15" lengthAdjust="spacingAndGlyphs" textLength="75" x="716.5625" y="343.3008">COURSES</text><line style="stroke: #A80036; stroke-width: 1.875;" x1="631.875" x2="835.625" y1="356.3538" y2="356.3538"/><text fill="#000000" font-family="sans-serif" font-size="13.75" font-weight="bold" lengthAdjust="spacingAndGlyphs" textLength="73.75" x="638.125" y="377.1112">COURSE_ID</text><text fill="#000000" font-family="sans-serif" font-size="13.75" lengthAdjust="spacingAndGlyphs" textLength="82.5" x="711.875" y="377.1112">（课程编号）</text><text fill="#000000" font-family="sans-serif" font-size="13.75" font-weight="bold" lengthAdjust="spacingAndGlyphs" textLength="81.25" x="638.125" y="395.8899">TEACHER_ID</text><text fill="#000000" font-family="sans-serif" font-size="13.75" lengthAdjust="spacingAndGlyphs" textLength="110" x="719.375" y="395.8899">（授课教师工号）</text><text fill="#000000" font-family="sans-serif" font-size="13.75" lengthAdjust="spacingAndGlyphs" textLength="178.75" x="638.125" y="414.6686">COURSE_NAME（课程名称）</text><text fill="#000000" font-family="sans-serif" font-size="13.75" lengthAdjust="spacingAndGlyphs" textLength="88.75" x="638.125" y="433.4473">TERM（学期）</text><text fill="#000000" font-family="sans-serif" font-size="13.75" lengthAdjust="spacingAndGlyphs" textLength="166.25" x="638.125" y="452.226">DEPARTMENT（开课学院）</text><line style="stroke: #A80036; stroke-width: 1.875;" x1="631.875" x2="835.625" y1="460.2472" y2="460.2472"/><text fill="#000000" font-family="sans-serif" font-size="13.75" lengthAdjust="spacingAndGlyphs" textLength="121.25" x="638.125" y="481.0046">NUMBER (上课人数)</text><!--MD5=[4583650ae37b789b614faa866bb574d3]
class SCORES--><rect fill="#FEFECE" filter="url(#fds3syomjgv9g)" height="229.0082" id="SCORES" style="stroke: #A80036; stroke-width: 1.875;" width="278.75" x="308.125" y="288.2288"/><ellipse cx="410.3125" cy="308.2288" fill="#ADD1B2" rx="13.75" ry="13.75" style="stroke: #A80036; stroke-width: 1.25;"/><path d="M409.9219,315.7288 Q407.5,315.7288 406.0938,313.9514 Q404.6875,312.1545 404.6875,308.4631 Q404.6875,305.3381 406.1719,303.2288 Q407.6563,301.1194 410.2344,301.1194 Q410.8008,301.1194 411.3477,301.1194 Q411.8945,301.1194 412.2852,301.1194 Q412.5977,301.1194 412.793,301.1194 Q413.0078,301.1194 413.5156,301.1194 L414.3945,305.7288 L413.0664,305.7288 Q412.5195,304.3616 411.7969,303.7952 Q411.0938,303.2288 409.9414,303.2288 Q408.4961,303.2288 407.6367,304.7131 Q406.7969,306.178 406.7969,308.4631 Q406.7969,310.9827 407.4414,312.3108 Q408.1055,313.6194 409.8633,313.6194 Q411.0156,313.6194 411.8164,312.9163 Q412.6367,312.1936 413.0664,310.4553 L414.3555,311.0999 Q413.8672,313.2874 412.6953,314.5178 Q411.5234,315.7288 409.9219,315.7288 Z "/><text fill="#000000" font-family="sans-serif" font-size="15" lengthAdjust="spacingAndGlyphs" textLength="63.75" x="435.9375" y="315.1758">SCORES</text><line style="stroke: #A80036; stroke-width: 1.875;" x1="309.375" x2="585.625" y1="328.2288" y2="328.2288"/><text fill="#000000" font-family="sans-serif" font-size="13.75" font-weight="bold" lengthAdjust="spacingAndGlyphs" textLength="80" x="315.625" y="348.9862">STUDENT_ID</text><text fill="#000000" font-family="sans-serif" font-size="13.75" lengthAdjust="spacingAndGlyphs" textLength="55" x="399.375" y="348.9862">（学号）</text><text fill="#000000" font-family="sans-serif" font-size="13.75" font-weight="bold" lengthAdjust="spacingAndGlyphs" textLength="112.5" x="315.625" y="367.7649">EXAMINATION_ID</text><text fill="#000000" font-family="sans-serif" font-size="13.75" lengthAdjust="spacingAndGlyphs" textLength="82.5" x="431.875" y="367.7649">（实验编号）</text><text fill="#000000" font-family="sans-serif" font-size="13.75" font-weight="bold" lengthAdjust="spacingAndGlyphs" textLength="73.75" x="315.625" y="386.5436">COURSE_ID</text><text fill="#000000" font-family="sans-serif" font-size="13.75" lengthAdjust="spacingAndGlyphs" textLength="82.5" x="389.375" y="386.5436">（课程编号）</text><text fill="#000000" font-family="sans-serif" font-size="13.75" lengthAdjust="spacingAndGlyphs" textLength="263.75" x="315.625" y="405.3223">PROGRAM1/RATE1  （评分项1以及比率1）</text><text fill="#000000" font-family="sans-serif" font-size="13.75" lengthAdjust="spacingAndGlyphs" textLength="263.75" x="315.625" y="424.101">PROGRAM2/RATE2  （评分项2以及比率2）</text><text fill="#000000" font-family="sans-serif" font-size="13.75" lengthAdjust="spacingAndGlyphs" textLength="263.75" x="315.625" y="442.8796">PROGRAM3/RATE3  （评分项3以及比率3）</text><text fill="#000000" font-family="sans-serif" font-size="13.75" lengthAdjust="spacingAndGlyphs" textLength="107.5" x="315.625" y="461.6583">RESULT （分数）</text><text fill="#000000" font-family="sans-serif" font-size="13.75" lengthAdjust="spacingAndGlyphs" textLength="121.25" x="315.625" y="480.437">COMMENT （评价）</text><text fill="#000000" font-family="sans-serif" font-size="13.75" lengthAdjust="spacingAndGlyphs" textLength="177.5" x="315.625" y="499.2157">UPDATE_DATE （评改日期）</text><line style="stroke: #A80036; stroke-width: 1.875;" x1="309.375" x2="585.625" y1="507.2369" y2="507.2369"/><!--MD5=[31e6be35f221eba55391266044f084ee]
class EXAMINATIONS--><rect fill="#FEFECE" filter="url(#fds3syomjgv9g)" height="135.1147" id="EXAMINATIONS" style="stroke: #A80036; stroke-width: 1.875;" width="213.75" x="613.125" y="59.4788"/><ellipse cx="661.6875" cy="79.4788" fill="#ADD1B2" rx="13.75" ry="13.75" style="stroke: #A80036; stroke-width: 1.25;"/><path d="M661.2969,86.9788 Q658.875,86.9788 657.4688,85.2014 Q656.0625,83.4045 656.0625,79.7131 Q656.0625,76.5881 657.5469,74.4788 Q659.0313,72.3694 661.6094,72.3694 Q662.1758,72.3694 662.7227,72.3694 Q663.2695,72.3694 663.6602,72.3694 Q663.9727,72.3694 664.168,72.3694 Q664.3828,72.3694 664.8906,72.3694 L665.7695,76.9788 L664.4414,76.9788 Q663.8945,75.6116 663.1719,75.0452 Q662.4688,74.4788 661.3164,74.4788 Q659.8711,74.4788 659.0117,75.9631 Q658.1719,77.428 658.1719,79.7131 Q658.1719,82.2327 658.8164,83.5608 Q659.4805,84.8694 661.2383,84.8694 Q662.3906,84.8694 663.1914,84.1663 Q664.0117,83.4436 664.4414,81.7053 L665.7305,82.3499 Q665.2422,84.5374 664.0703,85.7678 Q662.8984,86.9788 661.2969,86.9788 Z "/><text fill="#000000" font-family="sans-serif" font-size="15" lengthAdjust="spacingAndGlyphs" textLength="107.5" x="685.8125" y="86.4258">EXAMINATIONS</text><line style="stroke: #A80036; stroke-width: 1.875;" x1="614.375" x2="825.625" y1="99.4788" y2="99.4788"/><text fill="#000000" font-family="sans-serif" font-size="13.75" font-weight="bold" lengthAdjust="spacingAndGlyphs" textLength="112.5" x="620.625" y="120.2362">EXAMINATION_ID</text><text fill="#000000" font-family="sans-serif" font-size="13.75" lengthAdjust="spacingAndGlyphs" textLength="82.5" x="736.875" y="120.2362">（实验编号）</text><text fill="#000000" font-family="sans-serif" font-size="13.75" font-weight="bold" lengthAdjust="spacingAndGlyphs" textLength="73.75" x="620.625" y="139.0149">COURSE_ID</text><text fill="#000000" font-family="sans-serif" font-size="13.75" lengthAdjust="spacingAndGlyphs" textLength="96.25" x="698.125" y="139.0149">（课程的编号）</text><line style="stroke: #A80036; stroke-width: 1.875;" x1="614.375" x2="825.625" y1="147.0361" y2="147.0361"/><text fill="#000000" font-family="sans-serif" font-size="13.75" lengthAdjust="spacingAndGlyphs" textLength="198.75" x="620.625" y="167.7936">EXAMINATION_NAME (实验名称)</text><text fill="#000000" font-family="sans-serif" font-size="13.75" lengthAdjust="spacingAndGlyphs" textLength="175" x="620.625" y="186.5723">EXAMINATION_C  (实验内容)</text><!--MD5=[c61ab8275a962744f860b3c8a5fbcc66]
class TEACHERS_COURSES--><rect fill="#FEFECE" filter="url(#fds3syomjgv9g)" height="135.1147" id="TEACHERS_COURSES" style="stroke: #A80036; stroke-width: 1.875;" width="252.5" x="871.25" y="59.4788"/><ellipse cx="911.375" cy="79.4788" fill="#ADD1B2" rx="13.75" ry="13.75" style="stroke: #A80036; stroke-width: 1.25;"/><path d="M910.9844,86.9788 Q908.5625,86.9788 907.1563,85.2014 Q905.75,83.4045 905.75,79.7131 Q905.75,76.5881 907.2344,74.4788 Q908.7188,72.3694 911.2969,72.3694 Q911.8633,72.3694 912.4102,72.3694 Q912.957,72.3694 913.3477,72.3694 Q913.6602,72.3694 913.8555,72.3694 Q914.0703,72.3694 914.5781,72.3694 L915.457,76.9788 L914.1289,76.9788 Q913.582,75.6116 912.8594,75.0452 Q912.1563,74.4788 911.0039,74.4788 Q909.5586,74.4788 908.6992,75.9631 Q907.8594,77.428 907.8594,79.7131 Q907.8594,82.2327 908.5039,83.5608 Q909.168,84.8694 910.9258,84.8694 Q912.0781,84.8694 912.8789,84.1663 Q913.6992,83.4436 914.1289,81.7053 L915.418,82.3499 Q914.9297,84.5374 913.7578,85.7678 Q912.5859,86.9788 910.9844,86.9788 Z "/><text fill="#000000" font-family="sans-serif" font-size="15" lengthAdjust="spacingAndGlyphs" textLength="165" x="933.625" y="86.4258">TEACHERS_COURSES</text><line style="stroke: #A80036; stroke-width: 1.875;" x1="872.5" x2="1122.5" y1="99.4788" y2="99.4788"/><text fill="#000000" font-family="sans-serif" font-size="13.75" font-weight="bold" lengthAdjust="spacingAndGlyphs" textLength="81.25" x="878.75" y="120.2362">TEACHER_ID</text><text fill="#000000" font-family="sans-serif" font-size="13.75" lengthAdjust="spacingAndGlyphs" textLength="96.25" x="963.75" y="120.2362">（老师的编号）</text><text fill="#000000" font-family="sans-serif" font-size="13.75" font-weight="bold" lengthAdjust="spacingAndGlyphs" textLength="73.75" x="878.75" y="139.0149">COURSE_ID</text><text fill="#000000" font-family="sans-serif" font-size="13.75" lengthAdjust="spacingAndGlyphs" textLength="96.25" x="956.25" y="139.0149">（课程的编号）</text><line style="stroke: #A80036; stroke-width: 1.875;" x1="872.5" x2="1122.5" y1="147.0361" y2="147.0361"/><text fill="#000000" font-family="sans-serif" font-size="13.75" lengthAdjust="spacingAndGlyphs" textLength="96.25" x="878.75" y="167.7936">TIME (选课时间)</text><text fill="#000000" font-family="sans-serif" font-size="13.75" lengthAdjust="spacingAndGlyphs" textLength="237.5" x="878.75" y="186.5723">CHOOSE_NUMBER (选课教师人数上限)</text><!--MD5=[ab5fb4e13121df274a311cfd763748e3]
class STUDENTS_COURSES--><rect fill="#FEFECE" filter="url(#fds3syomjgv9g)" height="116.3361" id="STUDENTS_COURSES" style="stroke: #A80036; stroke-width: 1.875;" width="252.5" x="1167.5" y="68.8538"/><ellipse cx="1207.625" cy="88.8538" fill="#ADD1B2" rx="13.75" ry="13.75" style="stroke: #A80036; stroke-width: 1.25;"/><path d="M1207.2344,96.3538 Q1204.8125,96.3538 1203.4063,94.5764 Q1202,92.7795 1202,89.0881 Q1202,85.9631 1203.4844,83.8538 Q1204.9688,81.7444 1207.5469,81.7444 Q1208.1133,81.7444 1208.6602,81.7444 Q1209.207,81.7444 1209.5977,81.7444 Q1209.9102,81.7444 1210.1055,81.7444 Q1210.3203,81.7444 1210.8281,81.7444 L1211.707,86.3538 L1210.3789,86.3538 Q1209.832,84.9866 1209.1094,84.4202 Q1208.4063,83.8538 1207.2539,83.8538 Q1205.8086,83.8538 1204.9492,85.3381 Q1204.1094,86.803 1204.1094,89.0881 Q1204.1094,91.6077 1204.7539,92.9358 Q1205.418,94.2444 1207.1758,94.2444 Q1208.3281,94.2444 1209.1289,93.5413 Q1209.9492,92.8186 1210.3789,91.0803 L1211.668,91.7249 Q1211.1797,93.9124 1210.0078,95.1428 Q1208.8359,96.3538 1207.2344,96.3538 Z "/><text fill="#000000" font-family="sans-serif" font-size="15" lengthAdjust="spacingAndGlyphs" textLength="165" x="1229.875" y="95.8008">STUDENTS_COURSES</text><line style="stroke: #A80036; stroke-width: 1.875;" x1="1168.75" x2="1418.75" y1="108.8538" y2="108.8538"/><text fill="#000000" font-family="sans-serif" font-size="13.75" font-weight="bold" lengthAdjust="spacingAndGlyphs" textLength="73.75" x="1175" y="129.6112">COURSE_ID</text><text fill="#000000" font-family="sans-serif" font-size="13.75" lengthAdjust="spacingAndGlyphs" textLength="96.25" x="1252.5" y="129.6112">（课程的编号）</text><text fill="#000000" font-family="sans-serif" font-size="13.75" font-weight="bold" lengthAdjust="spacingAndGlyphs" textLength="80" x="1175" y="148.3899">STUDENT_ID</text><text fill="#000000" font-family="sans-serif" font-size="13.75" lengthAdjust="spacingAndGlyphs" textLength="96.25" x="1258.75" y="148.3899">（学生的编号）</text><line style="stroke: #A80036; stroke-width: 1.875;" x1="1168.75" x2="1418.75" y1="156.4111" y2="156.4111"/><text fill="#000000" font-family="sans-serif" font-size="13.75" lengthAdjust="spacingAndGlyphs" textLength="237.5" x="1175" y="177.1686">CHOOSE_NUMBER (选课学生人数上限)</text><!--MD5=[5e4affbf242e1bc8b7c801ee8762ff19]
reverse link USERS to STUDENTS--><path d="M320.4113,126.9788 C326.7125,126.9788 333.0125,126.9788 339.3125,126.9788 " fill="none" id="USERS&lt;-STUDENTS" style="stroke: #A80036; stroke-width: 1.25;"/><polygon fill="none" points="320.325,135.7288,295.325,126.9788,320.325,118.2288,320.325,135.7288" style="stroke: #A80036; stroke-width: 1.25;"/><!--MD5=[1597bbce9e6cac510e52f16228a4b405]
reverse link USERS to TEACHERS--><path d="M151.25,238.6825 C151.25,274.9138 151.25,313.6913 151.25,344.295 " fill="none" id="USERS&lt;-TEACHERS" style="stroke: #A80036; stroke-width: 1.25;"/><polygon fill="none" points="142.5,238.5238,151.25,213.5238,160,238.5238,142.5,238.5238" style="stroke: #A80036; stroke-width: 1.25;"/><!--MD5=[da1b2d263dfb72d0d10b1d4b8b9a0662]
link STUDENTS to SCORES--><path d="M447.5,194.6938 C447.5,222.8 447.5,256.3413 447.5,288.1425 " fill="none" id="STUDENTS-SCORES" style="stroke: #A80036; stroke-width: 1.25;"/><text fill="#000000" font-family="sans-serif" font-size="16.25" lengthAdjust="spacingAndGlyphs" textLength="8.75" x="438.1895" y="223.4066">1</text><text fill="#000000" font-family="sans-serif" font-size="16.25" lengthAdjust="spacingAndGlyphs" textLength="8.75" x="438.374" y="274.7948">n</text><!--MD5=[a791ee332058faeb82ab306623fb5251]
link EXAMINATIONS to SCORES--><path d="M653.6875,194.6938 C625.645,222.8 592.18,256.3413 560.4525,288.1425 " fill="none" id="EXAMINATIONS-SCORES" style="stroke: #A80036; stroke-width: 1.25;"/><text fill="#000000" font-family="sans-serif" font-size="16.25" lengthAdjust="spacingAndGlyphs" textLength="8.75" x="635.8807" y="223.4066">1</text><text fill="#000000" font-family="sans-serif" font-size="16.25" lengthAdjust="spacingAndGlyphs" textLength="8.75" x="561.0334" y="274.7948">n</text><!--MD5=[48d1519838cc5734878cb284ee29caf3]
link EXAMINATIONS to COURSES--><path d="M723.3463,194.6938 C725.1825,231.1688 727.48,276.7975 729.4475,315.8963 " fill="none" id="EXAMINATIONS-COURSES" style="stroke: #A80036; stroke-width: 1.25;"/><text fill="#000000" font-family="sans-serif" font-size="16.25" lengthAdjust="spacingAndGlyphs" textLength="8.75" x="714.4644" y="223.4066">n</text><text fill="#000000" font-family="sans-serif" font-size="16.25" lengthAdjust="spacingAndGlyphs" textLength="8.75" x="719.7484" y="302.6651">1</text><!--MD5=[6c3d22282632db8c71fc3382c550b1d7]
@startuml
title 基于GitHub的实验管理平台- -类图
class USERS {
    <b>USER_ID</b> （用户ID）
    NAME （用户真实姓名）
    GITHUB_USERNAME （用户GitHub账号）
    UPDATE_DATE （用户GitHub账号修改日期）
    PASSWORD （用户密码）
    DISABLE （用户是否禁用）
}
class STUDENTS{
    <b>student_id</b> （学号）
    class （班级）
    result_sum（成绩汇总）
    web_sum （网站正确与否汇总）
}
class TEACHERS{
    <b>TEACHER_ID</b> （老师工号）
    <b>USER_ID</b> （用户ID）
    DEPARTMENT （老师所属学院）
}

USERS <|- STUDENTS
USERS <|- - TEACHERS
class COURSES{
    <b>COURSE_ID</b>（课程编号）
    <b>TEACHER_ID</b>（授课教师工号）
    COURSE_NAME（课程名称）
    TERM（学期）
    DEPARTMENT（开课学院）
    NUMBER (上课人数)
}
class SCORES {
    <b>STUDENT_ID</b> （学号）
    <b>EXAMINATION_ID</b> （实验编号）
    <b>COURSE_ID</b>（课程编号）
    PROGRAM1/RATE1  （评分项1以及比率1）
    PROGRAM2/RATE2  （评分项2以及比率2）
    PROGRAM3/RATE3  （评分项3以及比率3）
    RESULT （分数）
    COMMENT （评价）
    UPDATE_DATE （评改日期）
}

class EXAMINATIONS {
    <b>EXAMINATION_ID</b> （实验编号）
    <b>COURSE_ID</b> （课程的编号）
    EXAMINATION_NAME (实验名称)
    EXAMINATION_C  (实验内容)
}
class TEACHERS_COURSES{
    <b>TEACHER_ID</b> （老师的编号）
    <b>COURSE_ID</b> （课程的编号）
    TIME (选课时间)
    CHOOSE_NUMBER (选课教师人数上限)


}
class STUDENTS_COURSES{
    <b>COURSE_ID</b> （课程的编号）
    <b>STUDENT_ID</b> （学生的编号）
    CHOOSE_NUMBER (选课学生人数上限)
}




STUDENTS "1" - - "n"  SCORES
EXAMINATIONS "1" - - "n"  SCORES
EXAMINATIONS "n" - - "1" COURSES

@enduml

PlantUML version 1.2019.11(Sun Sep 22 18:02:15 CST 2019)
(GPL source distribution)
Java Runtime: OpenJDK Runtime Environment
JVM: OpenJDK 64-Bit Server VM
Java Version: 11.0.5+10-b520.38
Operating System: Windows 10
Default Encoding: GBK
Language: zh
Country: CN
--></g></svg>