<?xml version="1.0" encoding="UTF-8" standalone="no"?><svg xmlns="http://www.w3.org/2000/svg" xmlns:xlink="http://www.w3.org/1999/xlink" contentScriptType="application/ecmascript" contentStyleType="text/css" height="488.75px" preserveAspectRatio="none" style="width:770px;height:488px;" version="1.1" viewBox="0 0 770 488" width="770px" zoomAndPan="magnify"><defs><filter height="300%" id="f4dvon7a5byxd" width="300%" x="-1" y="-1"><feGaussianBlur result="blurOut" stdDeviation="2.5"/><feColorMatrix in="blurOut" result="blurOut2" type="matrix" values="0 0 0 0 0 0 0 0 0 0 0 0 0 0 0 0 0 0 .4 0"/><feOffset dx="5.0" dy="5.0" in="blurOut2" result="blurOut3"/><feBlend in="SourceGraphic" in2="blurOut3" mode="normal"/></filter></defs><g><text fill="#000000" font-family="sans-serif" font-size="17.5" font-weight="bold" lengthAdjust="spacingAndGlyphs" textLength="352.5" x="210" y="32.5549">基于GitHub的实验管理平台--学生列表顺序图</text><rect fill="#FFFFFF" filter="url(#f4dvon7a5byxd)" height="188.465" style="stroke: #A80036; stroke-width: 1.25;" width="12.5" x="53.75" y="165.3003"/><rect fill="#FFFFFF" filter="url(#f4dvon7a5byxd)" height="158.772" style="stroke: #A80036; stroke-width: 1.25;" width="12.5" x="168.75" y="194.9933"/><rect fill="#FFFFFF" filter="url(#f4dvon7a5byxd)" height="119.079" style="stroke: #A80036; stroke-width: 1.25;" width="12.5" x="348.75" y="234.6863"/><rect fill="#FFFFFF" filter="url(#f4dvon7a5byxd)" height="79.386" style="stroke: #A80036; stroke-width: 1.25;" width="12.5" x="528.75" y="274.3793"/><rect fill="#FFFFFF" filter="url(#f4dvon7a5byxd)" height="39.693" style="stroke: #A80036; stroke-width: 1.25;" width="12.5" x="708.75" y="314.0723"/><line style="stroke: #A80036; stroke-width: 1.25; stroke-dasharray: 5.0,5.0;" x1="60" x2="60" y1="152.8003" y2="376.2653"/><line style="stroke: #A80036; stroke-width: 1.25; stroke-dasharray: 5.0,5.0;" x1="175" x2="175" y1="152.8003" y2="376.2653"/><line style="stroke: #A80036; stroke-width: 1.25; stroke-dasharray: 5.0,5.0;" x1="355" x2="355" y1="152.8003" y2="376.2653"/><line style="stroke: #A80036; stroke-width: 1.25; stroke-dasharray: 5.0,5.0;" x1="535" x2="535" y1="152.8003" y2="376.2653"/><line style="stroke: #A80036; stroke-width: 1.25; stroke-dasharray: 5.0,5.0;" x1="715" x2="715" y1="152.8003" y2="376.2653"/><text fill="#000000" font-family="sans-serif" font-size="17.5" lengthAdjust="spacingAndGlyphs" textLength="92.5" x="10" y="148.9551">TEACHERS</text><ellipse cx="60" cy="57.6501" fill="#FEFECE" filter="url(#f4dvon7a5byxd)" rx="10" ry="10" style="stroke: #A80036; stroke-width: 2.5;"/><path d="M60,67.6501 L60,101.4001 M43.75,77.6501 L76.25,77.6501 M60,101.4001 L43.75,120.1501 M60,101.4001 L76.25,120.1501 " fill="none" filter="url(#f4dvon7a5byxd)" style="stroke: #A80036; stroke-width: 2.5;"/><text fill="#000000" font-family="sans-serif" font-size="17.5" lengthAdjust="spacingAndGlyphs" textLength="92.5" x="10" y="395.0702">TEACHERS</text><ellipse cx="60" cy="411.4154" fill="#FEFECE" filter="url(#f4dvon7a5byxd)" rx="10" ry="10" style="stroke: #A80036; stroke-width: 2.5;"/><path d="M60,421.4154 L60,455.1654 M43.75,431.4154 L76.25,431.4154 M60,455.1654 L43.75,473.9154 M60,455.1654 L76.25,473.9154 " fill="none" filter="url(#f4dvon7a5byxd)" style="stroke: #A80036; stroke-width: 2.5;"/><rect fill="#FEFECE" filter="url(#f4dvon7a5byxd)" height="41.4001" style="stroke: #A80036; stroke-width: 1.875;" width="70" x="137.5" y="105.1501"/><text fill="#000000" font-family="sans-serif" font-size="17.5" lengthAdjust="spacingAndGlyphs" textLength="52.5" x="146.25" y="133.9551">主界面</text><rect fill="#FEFECE" filter="url(#f4dvon7a5byxd)" height="41.4001" style="stroke: #A80036; stroke-width: 1.875;" width="70" x="137.5" y="375.0153"/><text fill="#000000" font-family="sans-serif" font-size="17.5" lengthAdjust="spacingAndGlyphs" textLength="52.5" x="146.25" y="403.8202">主界面</text><rect fill="#FEFECE" filter="url(#f4dvon7a5byxd)" height="41.4001" style="stroke: #A80036; stroke-width: 1.875;" width="87.5" x="308.75" y="105.1501"/><text fill="#000000" font-family="sans-serif" font-size="17.5" lengthAdjust="spacingAndGlyphs" textLength="70" x="317.5" y="133.9551">科目详情</text><rect fill="#FEFECE" filter="url(#f4dvon7a5byxd)" height="41.4001" style="stroke: #A80036; stroke-width: 1.875;" width="87.5" x="308.75" y="375.0153"/><text fill="#000000" font-family="sans-serif" font-size="17.5" lengthAdjust="spacingAndGlyphs" textLength="70" x="317.5" y="403.8202">科目详情</text><text fill="#000000" font-family="sans-serif" font-size="17.5" lengthAdjust="spacingAndGlyphs" textLength="52.5" x="505" y="148.9551">服务器</text><path d="M512.5,83.9001 C512.5,71.4001 535,71.4001 535,71.4001 C535,71.4001 557.5,71.4001 557.5,83.9001 L557.5,116.4001 C557.5,128.9001 535,128.9001 535,128.9001 C535,128.9001 512.5,128.9001 512.5,116.4001 L512.5,83.9001 " fill="#FEFECE" filter="url(#f4dvon7a5byxd)" style="stroke: #000000; stroke-width: 1.875;"/><path d="M512.5,83.9001 C512.5,96.4001 535,96.4001 535,96.4001 C535,96.4001 557.5,96.4001 557.5,83.9001 " fill="none" style="stroke: #000000; stroke-width: 1.875;"/><text fill="#000000" font-family="sans-serif" font-size="17.5" lengthAdjust="spacingAndGlyphs" textLength="52.5" x="505" y="395.0702">服务器</text><path d="M512.5,411.4154 C512.5,398.9154 535,398.9154 535,398.9154 C535,398.9154 557.5,398.9154 557.5,411.4154 L557.5,443.9154 C557.5,456.4154 535,456.4154 535,456.4154 C535,456.4154 512.5,456.4154 512.5,443.9154 L512.5,411.4154 " fill="#FEFECE" filter="url(#f4dvon7a5byxd)" style="stroke: #000000; stroke-width: 1.875;"/><path d="M512.5,411.4154 C512.5,423.9154 535,423.9154 535,423.9154 C535,423.9154 557.5,423.9154 557.5,411.4154 " fill="none" style="stroke: #000000; stroke-width: 1.875;"/><text fill="#000000" font-family="sans-serif" font-size="17.5" lengthAdjust="spacingAndGlyphs" textLength="87.5" x="667.5" y="148.9551">数据库存储</text><path d="M692.5,83.9001 C692.5,71.4001 715,71.4001 715,71.4001 C715,71.4001 737.5,71.4001 737.5,83.9001 L737.5,116.4001 C737.5,128.9001 715,128.9001 715,128.9001 C715,128.9001 692.5,128.9001 692.5,116.4001 L692.5,83.9001 " fill="#FEFECE" filter="url(#f4dvon7a5byxd)" style="stroke: #000000; stroke-width: 1.875;"/><path d="M692.5,83.9001 C692.5,96.4001 715,96.4001 715,96.4001 C715,96.4001 737.5,96.4001 737.5,83.9001 " fill="none" style="stroke: #000000; stroke-width: 1.875;"/><text fill="#000000" font-family="sans-serif" font-size="17.5" lengthAdjust="spacingAndGlyphs" textLength="87.5" x="667.5" y="395.0702">数据库存储</text><path d="M692.5,411.4154 C692.5,398.9154 715,398.9154 715,398.9154 C715,398.9154 737.5,398.9154 737.5,411.4154 L737.5,443.9154 C737.5,456.4154 715,456.4154 715,456.4154 C715,456.4154 692.5,456.4154 692.5,443.9154 L692.5,411.4154 " fill="#FEFECE" filter="url(#f4dvon7a5byxd)" style="stroke: #000000; stroke-width: 1.875;"/><path d="M692.5,411.4154 C692.5,423.9154 715,423.9154 715,423.9154 C715,423.9154 737.5,423.9154 737.5,411.4154 " fill="none" style="stroke: #000000; stroke-width: 1.875;"/><rect fill="#FFFFFF" filter="url(#f4dvon7a5byxd)" height="188.465" style="stroke: #A80036; stroke-width: 1.25;" width="12.5" x="53.75" y="165.3003"/><rect fill="#FFFFFF" filter="url(#f4dvon7a5byxd)" height="158.772" style="stroke: #A80036; stroke-width: 1.25;" width="12.5" x="168.75" y="194.9933"/><rect fill="#FFFFFF" filter="url(#f4dvon7a5byxd)" height="119.079" style="stroke: #A80036; stroke-width: 1.25;" width="12.5" x="348.75" y="234.6863"/><rect fill="#FFFFFF" filter="url(#f4dvon7a5byxd)" height="79.386" style="stroke: #A80036; stroke-width: 1.25;" width="12.5" x="528.75" y="274.3793"/><rect fill="#FFFFFF" filter="url(#f4dvon7a5byxd)" height="39.693" style="stroke: #A80036; stroke-width: 1.25;" width="12.5" x="708.75" y="314.0723"/><polygon fill="#A80036" points="153.75,189.9933,166.25,194.9933,153.75,199.9933,158.75,194.9933" style="stroke: #A80036; stroke-width: 1.25;"/><line style="stroke: #A80036; stroke-width: 1.25;" x1="66.25" x2="161.25" y1="194.9933" y2="194.9933"/><text fill="#000000" font-family="sans-serif" font-size="16.25" lengthAdjust="spacingAndGlyphs" textLength="78.75" x="75" y="188.9227">1.教师登录</text><polygon fill="#A80036" points="333.75,229.6863,346.25,234.6863,333.75,239.6863,338.75,234.6863" style="stroke: #A80036; stroke-width: 1.25;"/><line style="stroke: #A80036; stroke-width: 1.25;" x1="181.25" x2="341.25" y1="234.6863" y2="234.6863"/><text fill="#000000" font-family="sans-serif" font-size="16.25" lengthAdjust="spacingAndGlyphs" textLength="143.75" x="190" y="228.6157">2.请求查看学生名单</text><polygon fill="#A80036" points="513.75,269.3793,526.25,274.3793,513.75,279.3793,518.75,274.3793" style="stroke: #A80036; stroke-width: 1.25;"/><line style="stroke: #A80036; stroke-width: 1.25;" x1="361.25" x2="521.25" y1="274.3793" y2="274.3793"/><text fill="#000000" font-family="sans-serif" font-size="16.25" lengthAdjust="spacingAndGlyphs" textLength="143.75" x="370" y="268.3087">3.请求查看学生名单</text><polygon fill="#A80036" points="693.75,309.0723,706.25,314.0723,693.75,319.0723,698.75,314.0723" style="stroke: #A80036; stroke-width: 1.25;"/><line style="stroke: #A80036; stroke-width: 1.25;" x1="541.25" x2="701.25" y1="314.0723" y2="314.0723"/><text fill="#000000" font-family="sans-serif" font-size="16.25" lengthAdjust="spacingAndGlyphs" textLength="143.75" x="550" y="308.0017">4.请求查看学生名单</text><polygon fill="#A80036" points="188.75,348.7653,176.25,353.7653,188.75,358.7653,183.75,353.7653" style="stroke: #A80036; stroke-width: 1.25;"/><line style="stroke: #A80036; stroke-width: 1.25;" x1="181.25" x2="713.75" y1="353.7653" y2="353.7653"/><text fill="#000000" font-family="sans-serif" font-size="16.25" lengthAdjust="spacingAndGlyphs" textLength="111.25" x="196.25" y="347.6947">5.返回学生名单</text><!--MD5=[eb0fe06a6b8a8af4fd437b305df8c6e9]
@startuml
title 基于GitHub的实验管理平台- -学生列表顺序图
actor TEACHERS
activate TEACHERS
TEACHERS -> 主界面: 1.教师登录
activate 主界面
主界面->科目详情:2.请求查看学生名单
activate 科目详情
database 服务器
database 数据库存储
科目详情 -> 服务器:3.请求查看学生名单
activate 服务器
服务器-> 数据库存储:4.请求查看学生名单
activate 数据库存储
数据库存储->主界面:5.返回学生名单
deactivate 数据库存储
deactivate 服务器
deactivate 主界面
deactivate 科目详情
deactivate TEACHERS
@enduml

PlantUML version 1.2019.11(Sun Sep 22 18:02:15 CST 2019)
(GPL source distribution)
Java Runtime: OpenJDK Runtime Environment
JVM: OpenJDK 64-Bit Server VM
Java Version: 11.0.5+10-b520.38
Operating System: Windows 10
Default Encoding: GBK
Language: zh
Country: CN
--></g></svg>