<?xml version="1.0" encoding="UTF-8" standalone="no"?><svg xmlns="http://www.w3.org/2000/svg" xmlns:xlink="http://www.w3.org/1999/xlink" contentScriptType="application/ecmascript" contentStyleType="text/css" height="488.75px" preserveAspectRatio="none" style="width:703px;height:488px;" version="1.1" viewBox="0 0 703 488" width="703.75px" zoomAndPan="magnify"><defs><filter height="300%" id="fum0h1u11fisv" width="300%" x="-1" y="-1"><feGaussianBlur result="blurOut" stdDeviation="2.5"/><feColorMatrix in="blurOut" result="blurOut2" type="matrix" values="0 0 0 0 0 0 0 0 0 0 0 0 0 0 0 0 0 0 .4 0"/><feOffset dx="5.0" dy="5.0" in="blurOut2" result="blurOut3"/><feBlend in="SourceGraphic" in2="blurOut3" mode="normal"/></filter></defs><g><text fill="#000000" font-family="sans-serif" font-size="17.5" font-weight="bold" lengthAdjust="spacingAndGlyphs" textLength="352.5" x="177.1875" y="32.5549">基于GitHub的实验管理平台--查看成绩顺序图</text><rect fill="#FFFFFF" filter="url(#fum0h1u11fisv)" height="188.465" style="stroke: #A80036; stroke-width: 1.25;" width="12.5" x="53.125" y="165.3003"/><rect fill="#FFFFFF" filter="url(#fum0h1u11fisv)" height="158.772" style="stroke: #A80036; stroke-width: 1.25;" width="12.5" x="168.125" y="194.9933"/><rect fill="#FFFFFF" filter="url(#fum0h1u11fisv)" height="119.079" style="stroke: #A80036; stroke-width: 1.25;" width="12.5" x="348.125" y="234.6863"/><rect fill="#FFFFFF" filter="url(#fum0h1u11fisv)" height="79.386" style="stroke: #A80036; stroke-width: 1.25;" width="12.5" x="528.125" y="274.3793"/><rect fill="#FFFFFF" filter="url(#fum0h1u11fisv)" height="39.693" style="stroke: #A80036; stroke-width: 1.25;" width="12.5" x="643.125" y="314.0723"/><line style="stroke: #A80036; stroke-width: 1.25; stroke-dasharray: 5.0,5.0;" x1="58.75" x2="58.75" y1="152.8003" y2="376.2653"/><line style="stroke: #A80036; stroke-width: 1.25; stroke-dasharray: 5.0,5.0;" x1="174.375" x2="174.375" y1="152.8003" y2="376.2653"/><line style="stroke: #A80036; stroke-width: 1.25; stroke-dasharray: 5.0,5.0;" x1="354.375" x2="354.375" y1="152.8003" y2="376.2653"/><line style="stroke: #A80036; stroke-width: 1.25; stroke-dasharray: 5.0,5.0;" x1="534.375" x2="534.375" y1="152.8003" y2="376.2653"/><line style="stroke: #A80036; stroke-width: 1.25; stroke-dasharray: 5.0,5.0;" x1="649.375" x2="649.375" y1="152.8003" y2="376.2653"/><text fill="#000000" font-family="sans-serif" font-size="17.5" lengthAdjust="spacingAndGlyphs" textLength="91.25" x="10" y="148.9551">STUDENTS</text><ellipse cx="59.375" cy="57.6501" fill="#FEFECE" filter="url(#fum0h1u11fisv)" rx="10" ry="10" style="stroke: #A80036; stroke-width: 2.5;"/><path d="M59.375,67.6501 L59.375,101.4001 M43.125,77.6501 L75.625,77.6501 M59.375,101.4001 L43.125,120.1501 M59.375,101.4001 L75.625,120.1501 " fill="none" filter="url(#fum0h1u11fisv)" style="stroke: #A80036; stroke-width: 2.5;"/><text fill="#000000" font-family="sans-serif" font-size="17.5" lengthAdjust="spacingAndGlyphs" textLength="91.25" x="10" y="395.0702">STUDENTS</text><ellipse cx="59.375" cy="411.4154" fill="#FEFECE" filter="url(#fum0h1u11fisv)" rx="10" ry="10" style="stroke: #A80036; stroke-width: 2.5;"/><path d="M59.375,421.4154 L59.375,455.1654 M43.125,431.4154 L75.625,431.4154 M59.375,455.1654 L43.125,473.9154 M59.375,455.1654 L75.625,473.9154 " fill="none" filter="url(#fum0h1u11fisv)" style="stroke: #A80036; stroke-width: 2.5;"/><rect fill="#FEFECE" filter="url(#fum0h1u11fisv)" height="41.4001" style="stroke: #A80036; stroke-width: 1.875;" width="70" x="136.875" y="105.1501"/><text fill="#000000" font-family="sans-serif" font-size="17.5" lengthAdjust="spacingAndGlyphs" textLength="52.5" x="145.625" y="133.9551">主界面</text><rect fill="#FEFECE" filter="url(#fum0h1u11fisv)" height="41.4001" style="stroke: #A80036; stroke-width: 1.875;" width="70" x="136.875" y="375.0153"/><text fill="#000000" font-family="sans-serif" font-size="17.5" lengthAdjust="spacingAndGlyphs" textLength="52.5" x="145.625" y="403.8202">主界面</text><rect fill="#FEFECE" filter="url(#fum0h1u11fisv)" height="41.4001" style="stroke: #A80036; stroke-width: 1.875;" width="87.5" x="308.125" y="105.1501"/><text fill="#000000" font-family="sans-serif" font-size="17.5" lengthAdjust="spacingAndGlyphs" textLength="70" x="316.875" y="133.9551">成绩界面</text><rect fill="#FEFECE" filter="url(#fum0h1u11fisv)" height="41.4001" style="stroke: #A80036; stroke-width: 1.875;" width="87.5" x="308.125" y="375.0153"/><text fill="#000000" font-family="sans-serif" font-size="17.5" lengthAdjust="spacingAndGlyphs" textLength="70" x="316.875" y="403.8202">成绩界面</text><text fill="#000000" font-family="sans-serif" font-size="17.5" lengthAdjust="spacingAndGlyphs" textLength="52.5" x="504.375" y="148.9551">服务器</text><path d="M511.875,83.9001 C511.875,71.4001 534.375,71.4001 534.375,71.4001 C534.375,71.4001 556.875,71.4001 556.875,83.9001 L556.875,116.4001 C556.875,128.9001 534.375,128.9001 534.375,128.9001 C534.375,128.9001 511.875,128.9001 511.875,116.4001 L511.875,83.9001 " fill="#FEFECE" filter="url(#fum0h1u11fisv)" style="stroke: #000000; stroke-width: 1.875;"/><path d="M511.875,83.9001 C511.875,96.4001 534.375,96.4001 534.375,96.4001 C534.375,96.4001 556.875,96.4001 556.875,83.9001 " fill="none" style="stroke: #000000; stroke-width: 1.875;"/><text fill="#000000" font-family="sans-serif" font-size="17.5" lengthAdjust="spacingAndGlyphs" textLength="52.5" x="504.375" y="395.0702">服务器</text><path d="M511.875,411.4154 C511.875,398.9154 534.375,398.9154 534.375,398.9154 C534.375,398.9154 556.875,398.9154 556.875,411.4154 L556.875,443.9154 C556.875,456.4154 534.375,456.4154 534.375,456.4154 C534.375,456.4154 511.875,456.4154 511.875,443.9154 L511.875,411.4154 " fill="#FEFECE" filter="url(#fum0h1u11fisv)" style="stroke: #000000; stroke-width: 1.875;"/><path d="M511.875,411.4154 C511.875,423.9154 534.375,423.9154 534.375,423.9154 C534.375,423.9154 556.875,423.9154 556.875,411.4154 " fill="none" style="stroke: #000000; stroke-width: 1.875;"/><text fill="#000000" font-family="sans-serif" font-size="17.5" lengthAdjust="spacingAndGlyphs" textLength="87.5" x="601.875" y="148.9551">数据库存储</text><path d="M626.875,83.9001 C626.875,71.4001 649.375,71.4001 649.375,71.4001 C649.375,71.4001 671.875,71.4001 671.875,83.9001 L671.875,116.4001 C671.875,128.9001 649.375,128.9001 649.375,128.9001 C649.375,128.9001 626.875,128.9001 626.875,116.4001 L626.875,83.9001 " fill="#FEFECE" filter="url(#fum0h1u11fisv)" style="stroke: #000000; stroke-width: 1.875;"/><path d="M626.875,83.9001 C626.875,96.4001 649.375,96.4001 649.375,96.4001 C649.375,96.4001 671.875,96.4001 671.875,83.9001 " fill="none" style="stroke: #000000; stroke-width: 1.875;"/><text fill="#000000" font-family="sans-serif" font-size="17.5" lengthAdjust="spacingAndGlyphs" textLength="87.5" x="601.875" y="395.0702">数据库存储</text><path d="M626.875,411.4154 C626.875,398.9154 649.375,398.9154 649.375,398.9154 C649.375,398.9154 671.875,398.9154 671.875,411.4154 L671.875,443.9154 C671.875,456.4154 649.375,456.4154 649.375,456.4154 C649.375,456.4154 626.875,456.4154 626.875,443.9154 L626.875,411.4154 " fill="#FEFECE" filter="url(#fum0h1u11fisv)" style="stroke: #000000; stroke-width: 1.875;"/><path d="M626.875,411.4154 C626.875,423.9154 649.375,423.9154 649.375,423.9154 C649.375,423.9154 671.875,423.9154 671.875,411.4154 " fill="none" style="stroke: #000000; stroke-width: 1.875;"/><rect fill="#FFFFFF" filter="url(#fum0h1u11fisv)" height="188.465" style="stroke: #A80036; stroke-width: 1.25;" width="12.5" x="53.125" y="165.3003"/><rect fill="#FFFFFF" filter="url(#fum0h1u11fisv)" height="158.772" style="stroke: #A80036; stroke-width: 1.25;" width="12.5" x="168.125" y="194.9933"/><rect fill="#FFFFFF" filter="url(#fum0h1u11fisv)" height="119.079" style="stroke: #A80036; stroke-width: 1.25;" width="12.5" x="348.125" y="234.6863"/><rect fill="#FFFFFF" filter="url(#fum0h1u11fisv)" height="79.386" style="stroke: #A80036; stroke-width: 1.25;" width="12.5" x="528.125" y="274.3793"/><rect fill="#FFFFFF" filter="url(#fum0h1u11fisv)" height="39.693" style="stroke: #A80036; stroke-width: 1.25;" width="12.5" x="643.125" y="314.0723"/><polygon fill="#A80036" points="153.125,189.9933,165.625,194.9933,153.125,199.9933,158.125,194.9933" style="stroke: #A80036; stroke-width: 1.25;"/><line style="stroke: #A80036; stroke-width: 1.25;" x1="65.625" x2="160.625" y1="194.9933" y2="194.9933"/><text fill="#000000" font-family="sans-serif" font-size="16.25" lengthAdjust="spacingAndGlyphs" textLength="78.75" x="74.375" y="188.9227">1.学生登录</text><polygon fill="#A80036" points="333.125,229.6863,345.625,234.6863,333.125,239.6863,338.125,234.6863" style="stroke: #A80036; stroke-width: 1.25;"/><line style="stroke: #A80036; stroke-width: 1.25;" x1="180.625" x2="340.625" y1="234.6863" y2="234.6863"/><text fill="#000000" font-family="sans-serif" font-size="16.25" lengthAdjust="spacingAndGlyphs" textLength="143.75" x="189.375" y="228.6157">2.请求查看个人成绩</text><polygon fill="#A80036" points="513.125,269.3793,525.625,274.3793,513.125,279.3793,518.125,274.3793" style="stroke: #A80036; stroke-width: 1.25;"/><line style="stroke: #A80036; stroke-width: 1.25;" x1="360.625" x2="520.625" y1="274.3793" y2="274.3793"/><text fill="#000000" font-family="sans-serif" font-size="16.25" lengthAdjust="spacingAndGlyphs" textLength="143.75" x="369.375" y="268.3087">3.请求查看个人成绩</text><polygon fill="#A80036" points="628.125,309.0723,640.625,314.0723,628.125,319.0723,633.125,314.0723" style="stroke: #A80036; stroke-width: 1.25;"/><line style="stroke: #A80036; stroke-width: 1.25;" x1="540.625" x2="635.625" y1="314.0723" y2="314.0723"/><text fill="#000000" font-family="sans-serif" font-size="16.25" lengthAdjust="spacingAndGlyphs" textLength="78.75" x="549.375" y="308.0017">4.查询成绩</text><polygon fill="#A80036" points="368.125,348.7653,355.625,353.7653,368.125,358.7653,363.125,353.7653" style="stroke: #A80036; stroke-width: 1.25;"/><line style="stroke: #A80036; stroke-width: 1.25;" x1="360.625" x2="648.125" y1="353.7653" y2="353.7653"/><text fill="#000000" font-family="sans-serif" font-size="16.25" lengthAdjust="spacingAndGlyphs" textLength="70" x="375.625" y="347.6947">.返回成绩</text><!--MD5=[56eaaa1b91e7009b7b07c068c2d0dd24]
@startuml
title 基于GitHub的实验管理平台- -查看成绩顺序图
actor STUDENTS
activate STUDENTS
STUDENTS -> 主界面: 1.学生登录
activate 主界面
主界面->成绩界面:2.请求查看个人成绩
activate 成绩界面
database 服务器
database 数据库存储
成绩界面 -> 服务器:3.请求查看个人成绩
activate 服务器
服务器-> 数据库存储:4.查询成绩
activate 数据库存储
数据库存储->成绩界面:.返回成绩
deactivate 数据库存储
deactivate 服务器
deactivate 主界面
deactivate 成绩界面
deactivate STUDENTS
@enduml

PlantUML version 1.2019.11(Sun Sep 22 18:02:15 CST 2019)
(GPL source distribution)
Java Runtime: OpenJDK Runtime Environment
JVM: OpenJDK 64-Bit Server VM
Java Version: 11.0.5+10-b520.38
Operating System: Windows 10
Default Encoding: GBK
Language: zh
Country: CN
--></g></svg>