<?xml version="1.0" encoding="UTF-8" standalone="no"?><svg xmlns="http://www.w3.org/2000/svg" xmlns:xlink="http://www.w3.org/1999/xlink" contentScriptType="application/ecmascript" contentStyleType="text/css" height="620px" preserveAspectRatio="none" style="width:1003px;height:620px;" version="1.1" viewBox="0 0 1003 620" width="1003.75px" zoomAndPan="magnify"><defs><filter height="300%" id="f9zgbbsox1asf" width="300%" x="-1" y="-1"><feGaussianBlur result="blurOut" stdDeviation="2.5"/><feColorMatrix in="blurOut" result="blurOut2" type="matrix" values="0 0 0 0 0 0 0 0 0 0 0 0 0 0 0 0 0 0 .4 0"/><feOffset dx="5.0" dy="5.0" in="blurOut2" result="blurOut3"/><feBlend in="SourceGraphic" in2="blurOut3" mode="normal"/></filter></defs><g><text fill="#000000" font-family="sans-serif" font-size="17.5" font-weight="bold" lengthAdjust="spacingAndGlyphs" textLength="370" x="318.75" y="32.5549">基于GitHub的实验管理平台--注册用例的顺序图</text><rect fill="#FFFFFF" filter="url(#f9zgbbsox1asf)" height="363.4869" style="stroke: #A80036; stroke-width: 1.25;" width="12.5" x="32.5" y="139.0503"/><rect fill="#FFFFFF" filter="url(#f9zgbbsox1asf)" height="333.7939" style="stroke: #A80036; stroke-width: 1.25;" width="12.5" x="413.75" y="168.7433"/><rect fill="#FFFFFF" filter="url(#f9zgbbsox1asf)" height="175.022" style="stroke: #A80036; stroke-width: 1.25;" width="12.5" x="561.25" y="287.8223"/><rect fill="#FFFFFF" filter="url(#f9zgbbsox1asf)" height="135.329" style="stroke: #A80036; stroke-width: 1.25;" width="12.5" x="708.75" y="327.5153"/><rect fill="#FFFFFF" filter="url(#f9zgbbsox1asf)" height="95.636" style="stroke: #A80036; stroke-width: 1.25;" width="12.5" x="856.25" y="367.2083"/><line style="stroke: #A80036; stroke-width: 1.25; stroke-dasharray: 5.0,5.0;" x1="38.75" x2="38.75" y1="126.5503" y2="525.0372"/><line style="stroke: #A80036; stroke-width: 1.25; stroke-dasharray: 5.0,5.0;" x1="420" x2="420" y1="126.5503" y2="525.0372"/><line style="stroke: #A80036; stroke-width: 1.25; stroke-dasharray: 5.0,5.0;" x1="567.5" x2="567.5" y1="126.5503" y2="525.0372"/><line style="stroke: #A80036; stroke-width: 1.25; stroke-dasharray: 5.0,5.0;" x1="715" x2="715" y1="126.5503" y2="525.0372"/><line style="stroke: #A80036; stroke-width: 1.25; stroke-dasharray: 5.0,5.0;" x1="862.5" x2="862.5" y1="126.5503" y2="525.0372"/><rect fill="#FEFECE" filter="url(#f9zgbbsox1asf)" height="41.4001" style="stroke: #A80036; stroke-width: 1.875;" width="52.5" x="10" y="78.9001"/><text fill="#000000" font-family="sans-serif" font-size="17.5" lengthAdjust="spacingAndGlyphs" textLength="35" x="18.75" y="107.7051">用户</text><rect fill="#FEFECE" filter="url(#f9zgbbsox1asf)" height="41.4001" style="stroke: #A80036; stroke-width: 1.875;" width="52.5" x="10" y="523.7872"/><text fill="#000000" font-family="sans-serif" font-size="17.5" lengthAdjust="spacingAndGlyphs" textLength="35" x="18.75" y="552.5922">用户</text><rect fill="#FEFECE" filter="url(#f9zgbbsox1asf)" height="41.4001" style="stroke: #A80036; stroke-width: 1.875;" width="87.5" x="373.75" y="78.9001"/><text fill="#000000" font-family="sans-serif" font-size="17.5" lengthAdjust="spacingAndGlyphs" textLength="70" x="382.5" y="107.7051">注册界面</text><rect fill="#FEFECE" filter="url(#f9zgbbsox1asf)" height="41.4001" style="stroke: #A80036; stroke-width: 1.875;" width="87.5" x="373.75" y="523.7872"/><text fill="#000000" font-family="sans-serif" font-size="17.5" lengthAdjust="spacingAndGlyphs" textLength="70" x="382.5" y="552.5922">注册界面</text><rect fill="#FEFECE" filter="url(#f9zgbbsox1asf)" height="41.4001" style="stroke: #A80036; stroke-width: 1.875;" width="87.5" x="521.25" y="78.9001"/><text fill="#000000" font-family="sans-serif" font-size="17.5" lengthAdjust="spacingAndGlyphs" textLength="70" x="530" y="107.7051">注册管理</text><rect fill="#FEFECE" filter="url(#f9zgbbsox1asf)" height="41.4001" style="stroke: #A80036; stroke-width: 1.875;" width="87.5" x="521.25" y="523.7872"/><text fill="#000000" font-family="sans-serif" font-size="17.5" lengthAdjust="spacingAndGlyphs" textLength="70" x="530" y="552.5922">注册管理</text><text fill="#000000" font-family="sans-serif" font-size="17.5" lengthAdjust="spacingAndGlyphs" textLength="52.5" x="685" y="122.7051">服务器</text><path d="M692.5,57.6501 C692.5,45.1501 715,45.1501 715,45.1501 C715,45.1501 737.5,45.1501 737.5,57.6501 L737.5,90.1501 C737.5,102.6501 715,102.6501 715,102.6501 C715,102.6501 692.5,102.6501 692.5,90.1501 L692.5,57.6501 " fill="#FEFECE" filter="url(#f9zgbbsox1asf)" style="stroke: #000000; stroke-width: 1.875;"/><path d="M692.5,57.6501 C692.5,70.1501 715,70.1501 715,70.1501 C715,70.1501 737.5,70.1501 737.5,57.6501 " fill="none" style="stroke: #000000; stroke-width: 1.875;"/><text fill="#000000" font-family="sans-serif" font-size="17.5" lengthAdjust="spacingAndGlyphs" textLength="52.5" x="685" y="543.8422">服务器</text><path d="M692.5,560.1874 C692.5,547.6874 715,547.6874 715,547.6874 C715,547.6874 737.5,547.6874 737.5,560.1874 L737.5,592.6874 C737.5,605.1874 715,605.1874 715,605.1874 C715,605.1874 692.5,605.1874 692.5,592.6874 L692.5,560.1874 " fill="#FEFECE" filter="url(#f9zgbbsox1asf)" style="stroke: #000000; stroke-width: 1.875;"/><path d="M692.5,560.1874 C692.5,572.6874 715,572.6874 715,572.6874 C715,572.6874 737.5,572.6874 737.5,560.1874 " fill="none" style="stroke: #000000; stroke-width: 1.875;"/><text fill="#000000" font-family="sans-serif" font-size="17.5" lengthAdjust="spacingAndGlyphs" textLength="87.5" x="815" y="122.7051">数据库存储</text><path d="M840,57.6501 C840,45.1501 862.5,45.1501 862.5,45.1501 C862.5,45.1501 885,45.1501 885,57.6501 L885,90.1501 C885,102.6501 862.5,102.6501 862.5,102.6501 C862.5,102.6501 840,102.6501 840,90.1501 L840,57.6501 " fill="#FEFECE" filter="url(#f9zgbbsox1asf)" style="stroke: #000000; stroke-width: 1.875;"/><path d="M840,57.6501 C840,70.1501 862.5,70.1501 862.5,70.1501 C862.5,70.1501 885,70.1501 885,57.6501 " fill="none" style="stroke: #000000; stroke-width: 1.875;"/><text fill="#000000" font-family="sans-serif" font-size="17.5" lengthAdjust="spacingAndGlyphs" textLength="87.5" x="815" y="543.8422">数据库存储</text><path d="M840,560.1874 C840,547.6874 862.5,547.6874 862.5,547.6874 C862.5,547.6874 885,547.6874 885,560.1874 L885,592.6874 C885,605.1874 862.5,605.1874 862.5,605.1874 C862.5,605.1874 840,605.1874 840,592.6874 L840,560.1874 " fill="#FEFECE" filter="url(#f9zgbbsox1asf)" style="stroke: #000000; stroke-width: 1.875;"/><path d="M840,560.1874 C840,572.6874 862.5,572.6874 862.5,572.6874 C862.5,572.6874 885,572.6874 885,560.1874 " fill="none" style="stroke: #000000; stroke-width: 1.875;"/><rect fill="#FFFFFF" filter="url(#f9zgbbsox1asf)" height="363.4869" style="stroke: #A80036; stroke-width: 1.25;" width="12.5" x="32.5" y="139.0503"/><rect fill="#FFFFFF" filter="url(#f9zgbbsox1asf)" height="333.7939" style="stroke: #A80036; stroke-width: 1.25;" width="12.5" x="413.75" y="168.7433"/><rect fill="#FFFFFF" filter="url(#f9zgbbsox1asf)" height="175.022" style="stroke: #A80036; stroke-width: 1.25;" width="12.5" x="561.25" y="287.8223"/><rect fill="#FFFFFF" filter="url(#f9zgbbsox1asf)" height="135.329" style="stroke: #A80036; stroke-width: 1.25;" width="12.5" x="708.75" y="327.5153"/><rect fill="#FFFFFF" filter="url(#f9zgbbsox1asf)" height="95.636" style="stroke: #A80036; stroke-width: 1.25;" width="12.5" x="856.25" y="367.2083"/><polygon fill="#A80036" points="398.75,163.7433,411.25,168.7433,398.75,173.7433,403.75,168.7433" style="stroke: #A80036; stroke-width: 1.25;"/><line style="stroke: #A80036; stroke-width: 1.25;" x1="45" x2="406.25" y1="168.7433" y2="168.7433"/><text fill="#000000" font-family="sans-serif" font-size="16.25" lengthAdjust="spacingAndGlyphs" textLength="160" x="53.75" y="162.6727">1.进入对应的注册界面</text><polygon fill="#A80036" points="58.75,203.4363,46.25,208.4363,58.75,213.4363,53.75,208.4363" style="stroke: #A80036; stroke-width: 1.25;"/><line style="stroke: #A80036; stroke-width: 1.25;" x1="51.25" x2="412.5" y1="208.4363" y2="208.4363"/><text fill="#000000" font-family="sans-serif" font-size="16.25" lengthAdjust="spacingAndGlyphs" textLength="111.25" x="66.25" y="202.3657">2.显示注册信息</text><polygon fill="#A80036" points="398.75,243.1293,411.25,248.1293,398.75,253.1293,403.75,248.1293" style="stroke: #A80036; stroke-width: 1.25;"/><line style="stroke: #A80036; stroke-width: 1.25;" x1="45" x2="406.25" y1="248.1293" y2="248.1293"/><text fill="#000000" font-family="sans-serif" font-size="16.25" lengthAdjust="spacingAndGlyphs" textLength="338.75" x="53.75" y="242.0587">3.输入注册信息（用户名、密码、身份、信息）</text><polygon fill="#A80036" points="546.25,282.8223,558.75,287.8223,546.25,292.8223,551.25,287.8223" style="stroke: #A80036; stroke-width: 1.25;"/><line style="stroke: #A80036; stroke-width: 1.25;" x1="426.25" x2="553.75" y1="287.8223" y2="287.8223"/><text fill="#000000" font-family="sans-serif" font-size="16.25" lengthAdjust="spacingAndGlyphs" textLength="111.25" x="435" y="281.7517">4.传递注册信息</text><polygon fill="#A80036" points="693.75,322.5153,706.25,327.5153,693.75,332.5153,698.75,327.5153" style="stroke: #A80036; stroke-width: 1.25;"/><line style="stroke: #A80036; stroke-width: 1.25;" x1="573.75" x2="701.25" y1="327.5153" y2="327.5153"/><text fill="#000000" font-family="sans-serif" font-size="16.25" lengthAdjust="spacingAndGlyphs" textLength="111.25" x="582.5" y="321.4447">5.传递注册信息</text><polygon fill="#A80036" points="841.25,362.2083,853.75,367.2083,841.25,372.2083,846.25,367.2083" style="stroke: #A80036; stroke-width: 1.25;"/><line style="stroke: #A80036; stroke-width: 1.25;" x1="721.25" x2="848.75" y1="367.2083" y2="367.2083"/><text fill="#000000" font-family="sans-serif" font-size="16.25" lengthAdjust="spacingAndGlyphs" textLength="111.25" x="730" y="361.1377">6.添加注册信息</text><line style="stroke: #A80036; stroke-width: 1.25;" x1="868.75" x2="921.25" y1="406.9012" y2="406.9012"/><line style="stroke: #A80036; stroke-width: 1.25;" x1="921.25" x2="921.25" y1="406.9012" y2="423.1512"/><line style="stroke: #A80036; stroke-width: 1.25;" x1="870" x2="921.25" y1="423.1512" y2="423.1512"/><polygon fill="#A80036" points="882.5,418.1512,870,423.1512,882.5,428.1512,877.5,423.1512" style="stroke: #A80036; stroke-width: 1.25;"/><text fill="#000000" font-family="sans-serif" font-size="16.25" lengthAdjust="spacingAndGlyphs" textLength="111.25" x="877.5" y="400.8307">7.验证注册信息</text><polygon fill="#A80036" points="440,457.8442,427.5,462.8442,440,467.8442,435,462.8442" style="stroke: #A80036; stroke-width: 1.25;"/><line style="stroke: #A80036; stroke-width: 1.25;" x1="432.5" x2="861.25" y1="462.8442" y2="462.8442"/><text fill="#000000" font-family="sans-serif" font-size="16.25" lengthAdjust="spacingAndGlyphs" textLength="111.25" x="447.5" y="456.7737">8.返回注册结果</text><polygon fill="#A80036" points="52.5,497.5372,40,502.5372,52.5,507.5372,47.5,502.5372" style="stroke: #A80036; stroke-width: 1.25;"/><line style="stroke: #A80036; stroke-width: 1.25;" x1="45" x2="418.75" y1="502.5372" y2="502.5372"/><text fill="#000000" font-family="sans-serif" font-size="16.25" lengthAdjust="spacingAndGlyphs" textLength="111.25" x="60" y="496.4667">9.显示注册结果</text><!--MD5=[ad86f0e0320703d6fdd2f4237dcfbcc0]
@startuml
title 基于GitHub的实验管理平台- -注册用例的顺序图
activate 用户
用户 -> 注册界面:1.进入对应的注册界面
activate 注册界面
注册界面 -> 用户:2.显示注册信息
用户 -> 注册界面:3.输入注册信息（用户名、密码、身份、信息）

注册界面 -> 注册管理:4.传递注册信息
activate 注册管理
database 服务器
database 数据库存储
注册管理 -> 服务器:5.传递注册信息
activate 服务器
服务器 -> 数据库存储:6.添加注册信息
activate 数据库存储
数据库存储 -> 数据库存储:7.验证注册信息
数据库存储 -> 注册界面:8.返回注册结果
deactivate 数据库存储
deactivate 服务器
deactivate 注册管理

注册界面 -> 用户:9.显示注册结果
deactivate 注册界面
deactivate 用户
@enduml

PlantUML version 1.2019.11(Sun Sep 22 18:02:15 CST 2019)
(GPL source distribution)
Java Runtime: OpenJDK Runtime Environment
JVM: OpenJDK 64-Bit Server VM
Java Version: 11.0.5+10-b520.38
Operating System: Windows 10
Default Encoding: GBK
Language: zh
Country: CN
--></g></svg>