<?xml version="1.0" encoding="UTF-8" standalone="no"?><svg xmlns="http://www.w3.org/2000/svg" xmlns:xlink="http://www.w3.org/1999/xlink" contentScriptType="application/ecmascript" contentStyleType="text/css" height="758.75px" preserveAspectRatio="none" style="width:1185px;height:758px;" version="1.1" viewBox="0 0 1185 758" width="1185px" zoomAndPan="magnify"><defs><filter height="300%" id="f1rwhhd3unj9fe" width="300%" x="-1" y="-1"><feGaussianBlur result="blurOut" stdDeviation="2.5"/><feColorMatrix in="blurOut" result="blurOut2" type="matrix" values="0 0 0 0 0 0 0 0 0 0 0 0 0 0 0 0 0 0 .4 0"/><feOffset dx="5.0" dy="5.0" in="blurOut2" result="blurOut3"/><feBlend in="SourceGraphic" in2="blurOut3" mode="normal"/></filter></defs><g><text fill="#000000" font-family="sans-serif" font-size="17.5" font-weight="bold" lengthAdjust="spacingAndGlyphs" textLength="370" x="408.125" y="32.5549">基于GitHub的实验管理平台--登陆用例的顺序图</text><rect fill="#FFFFFF" filter="url(#f1rwhhd3unj9fe)" height="429.4299" style="stroke: #A80036; stroke-width: 1.25;" width="12.5" x="25" y="194.9933"/><rect fill="#FFFFFF" filter="url(#f1rwhhd3unj9fe)" height="429.4299" style="stroke: #A80036; stroke-width: 1.25;" width="12.5" x="280" y="194.9933"/><rect fill="#FFFFFF" filter="url(#f1rwhhd3unj9fe)" height="301.601" style="stroke: #A80036; stroke-width: 1.25;" width="12.5" x="541.25" y="234.6863"/><rect fill="#FFFFFF" filter="url(#f1rwhhd3unj9fe)" height="158.772" style="stroke: #A80036; stroke-width: 1.25;" width="12.5" x="852.5" y="274.3793"/><rect fill="#FFFFFF" filter="url(#f1rwhhd3unj9fe)" height="79.386" style="stroke: #A80036; stroke-width: 1.25;" width="12.5" x="1030" y="314.0723"/><line style="stroke: #A80036; stroke-width: 1.25; stroke-dasharray: 5.0,5.0;" x1="31.25" x2="31.25" y1="152.8003" y2="646.9232"/><line style="stroke: #A80036; stroke-width: 1.25; stroke-dasharray: 5.0,5.0;" x1="286.25" x2="286.25" y1="152.8003" y2="646.9232"/><line style="stroke: #A80036; stroke-width: 1.25; stroke-dasharray: 5.0,5.0;" x1="547.5" x2="547.5" y1="152.8003" y2="646.9232"/><line style="stroke: #A80036; stroke-width: 1.25; stroke-dasharray: 5.0,5.0;" x1="858.75" x2="858.75" y1="152.8003" y2="646.9232"/><line style="stroke: #A80036; stroke-width: 1.25; stroke-dasharray: 5.0,5.0;" x1="1036.25" x2="1036.25" y1="152.8003" y2="646.9232"/><line style="stroke: #A80036; stroke-width: 1.25; stroke-dasharray: 5.0,5.0;" x1="1136.25" x2="1136.25" y1="152.8003" y2="646.9232"/><text fill="#000000" font-family="sans-serif" font-size="17.5" lengthAdjust="spacingAndGlyphs" textLength="35" x="10" y="148.9551">用户</text><ellipse cx="31.25" cy="57.6501" fill="#FEFECE" filter="url(#f1rwhhd3unj9fe)" rx="10" ry="10" style="stroke: #A80036; stroke-width: 2.5;"/><path d="M31.25,67.6501 L31.25,101.4001 M15,77.6501 L47.5,77.6501 M31.25,101.4001 L15,120.1501 M31.25,101.4001 L47.5,120.1501 " fill="none" filter="url(#f1rwhhd3unj9fe)" style="stroke: #A80036; stroke-width: 2.5;"/><text fill="#000000" font-family="sans-serif" font-size="17.5" lengthAdjust="spacingAndGlyphs" textLength="35" x="10" y="665.7281">用户</text><ellipse cx="31.25" cy="682.0734" fill="#FEFECE" filter="url(#f1rwhhd3unj9fe)" rx="10" ry="10" style="stroke: #A80036; stroke-width: 2.5;"/><path d="M31.25,692.0734 L31.25,725.8234 M15,702.0734 L47.5,702.0734 M31.25,725.8234 L15,744.5734 M31.25,725.8234 L47.5,744.5734 " fill="none" filter="url(#f1rwhhd3unj9fe)" style="stroke: #A80036; stroke-width: 2.5;"/><rect fill="#FEFECE" filter="url(#f1rwhhd3unj9fe)" height="41.4001" style="stroke: #A80036; stroke-width: 1.875;" width="87.5" x="240" y="105.1501"/><text fill="#000000" font-family="sans-serif" font-size="17.5" lengthAdjust="spacingAndGlyphs" textLength="70" x="248.75" y="133.9551">登陆界面</text><rect fill="#FEFECE" filter="url(#f1rwhhd3unj9fe)" height="41.4001" style="stroke: #A80036; stroke-width: 1.875;" width="87.5" x="240" y="645.6732"/><text fill="#000000" font-family="sans-serif" font-size="17.5" lengthAdjust="spacingAndGlyphs" textLength="70" x="248.75" y="674.4781">登陆界面</text><rect fill="#FEFECE" filter="url(#f1rwhhd3unj9fe)" height="41.4001" style="stroke: #A80036; stroke-width: 1.875;" width="87.5" x="501.25" y="105.1501"/><text fill="#000000" font-family="sans-serif" font-size="17.5" lengthAdjust="spacingAndGlyphs" textLength="70" x="510" y="133.9551">登陆管理</text><rect fill="#FEFECE" filter="url(#f1rwhhd3unj9fe)" height="41.4001" style="stroke: #A80036; stroke-width: 1.875;" width="87.5" x="501.25" y="645.6732"/><text fill="#000000" font-family="sans-serif" font-size="17.5" lengthAdjust="spacingAndGlyphs" textLength="70" x="510" y="674.4781">登陆管理</text><text fill="#000000" font-family="sans-serif" font-size="17.5" lengthAdjust="spacingAndGlyphs" textLength="52.5" x="828.75" y="148.9551">服务器</text><path d="M836.25,83.9001 C836.25,71.4001 858.75,71.4001 858.75,71.4001 C858.75,71.4001 881.25,71.4001 881.25,83.9001 L881.25,116.4001 C881.25,128.9001 858.75,128.9001 858.75,128.9001 C858.75,128.9001 836.25,128.9001 836.25,116.4001 L836.25,83.9001 " fill="#FEFECE" filter="url(#f1rwhhd3unj9fe)" style="stroke: #000000; stroke-width: 1.875;"/><path d="M836.25,83.9001 C836.25,96.4001 858.75,96.4001 858.75,96.4001 C858.75,96.4001 881.25,96.4001 881.25,83.9001 " fill="none" style="stroke: #000000; stroke-width: 1.875;"/><text fill="#000000" font-family="sans-serif" font-size="17.5" lengthAdjust="spacingAndGlyphs" textLength="52.5" x="828.75" y="665.7281">服务器</text><path d="M836.25,682.0734 C836.25,669.5734 858.75,669.5734 858.75,669.5734 C858.75,669.5734 881.25,669.5734 881.25,682.0734 L881.25,714.5734 C881.25,727.0734 858.75,727.0734 858.75,727.0734 C858.75,727.0734 836.25,727.0734 836.25,714.5734 L836.25,682.0734 " fill="#FEFECE" filter="url(#f1rwhhd3unj9fe)" style="stroke: #000000; stroke-width: 1.875;"/><path d="M836.25,682.0734 C836.25,694.5734 858.75,694.5734 858.75,694.5734 C858.75,694.5734 881.25,694.5734 881.25,682.0734 " fill="none" style="stroke: #000000; stroke-width: 1.875;"/><text fill="#000000" font-family="sans-serif" font-size="17.5" lengthAdjust="spacingAndGlyphs" textLength="87.5" x="988.75" y="148.9551">数据库存储</text><path d="M1013.75,83.9001 C1013.75,71.4001 1036.25,71.4001 1036.25,71.4001 C1036.25,71.4001 1058.75,71.4001 1058.75,83.9001 L1058.75,116.4001 C1058.75,128.9001 1036.25,128.9001 1036.25,128.9001 C1036.25,128.9001 1013.75,128.9001 1013.75,116.4001 L1013.75,83.9001 " fill="#FEFECE" filter="url(#f1rwhhd3unj9fe)" style="stroke: #000000; stroke-width: 1.875;"/><path d="M1013.75,83.9001 C1013.75,96.4001 1036.25,96.4001 1036.25,96.4001 C1036.25,96.4001 1058.75,96.4001 1058.75,83.9001 " fill="none" style="stroke: #000000; stroke-width: 1.875;"/><text fill="#000000" font-family="sans-serif" font-size="17.5" lengthAdjust="spacingAndGlyphs" textLength="87.5" x="988.75" y="665.7281">数据库存储</text><path d="M1013.75,682.0734 C1013.75,669.5734 1036.25,669.5734 1036.25,669.5734 C1036.25,669.5734 1058.75,669.5734 1058.75,682.0734 L1058.75,714.5734 C1058.75,727.0734 1036.25,727.0734 1036.25,727.0734 C1036.25,727.0734 1013.75,727.0734 1013.75,714.5734 L1013.75,682.0734 " fill="#FEFECE" filter="url(#f1rwhhd3unj9fe)" style="stroke: #000000; stroke-width: 1.875;"/><path d="M1013.75,682.0734 C1013.75,694.5734 1036.25,694.5734 1036.25,694.5734 C1036.25,694.5734 1058.75,694.5734 1058.75,682.0734 " fill="none" style="stroke: #000000; stroke-width: 1.875;"/><rect fill="#FEFECE" filter="url(#f1rwhhd3unj9fe)" height="41.4001" style="stroke: #A80036; stroke-width: 1.875;" width="75" x="1096.25" y="105.1501"/><text fill="#000000" font-family="sans-serif" font-size="17.5" lengthAdjust="spacingAndGlyphs" textLength="57.5" x="1105" y="133.9551">USERS</text><rect fill="#FEFECE" filter="url(#f1rwhhd3unj9fe)" height="41.4001" style="stroke: #A80036; stroke-width: 1.875;" width="75" x="1096.25" y="645.6732"/><text fill="#000000" font-family="sans-serif" font-size="17.5" lengthAdjust="spacingAndGlyphs" textLength="57.5" x="1105" y="674.4781">USERS</text><rect fill="#FFFFFF" filter="url(#f1rwhhd3unj9fe)" height="429.4299" style="stroke: #A80036; stroke-width: 1.25;" width="12.5" x="25" y="194.9933"/><rect fill="#FFFFFF" filter="url(#f1rwhhd3unj9fe)" height="429.4299" style="stroke: #A80036; stroke-width: 1.25;" width="12.5" x="280" y="194.9933"/><rect fill="#FFFFFF" filter="url(#f1rwhhd3unj9fe)" height="301.601" style="stroke: #A80036; stroke-width: 1.25;" width="12.5" x="541.25" y="234.6863"/><rect fill="#FFFFFF" filter="url(#f1rwhhd3unj9fe)" height="158.772" style="stroke: #A80036; stroke-width: 1.25;" width="12.5" x="852.5" y="274.3793"/><rect fill="#FFFFFF" filter="url(#f1rwhhd3unj9fe)" height="79.386" style="stroke: #A80036; stroke-width: 1.25;" width="12.5" x="1030" y="314.0723"/><polygon fill="#A80036" points="265,189.9933,277.5,194.9933,265,199.9933,270,194.9933" style="stroke: #A80036; stroke-width: 1.25;"/><line style="stroke: #A80036; stroke-width: 1.25;" x1="37.5" x2="272.5" y1="194.9933" y2="194.9933"/><text fill="#000000" font-family="sans-serif" font-size="16.25" lengthAdjust="spacingAndGlyphs" textLength="225" x="46.25" y="188.9227">1.登录（用户名、密码、身份）</text><polygon fill="#A80036" points="526.25,229.6863,538.75,234.6863,526.25,239.6863,531.25,234.6863" style="stroke: #A80036; stroke-width: 1.25;"/><line style="stroke: #A80036; stroke-width: 1.25;" x1="292.5" x2="533.75" y1="234.6863" y2="234.6863"/><text fill="#000000" font-family="sans-serif" font-size="16.25" lengthAdjust="spacingAndGlyphs" textLength="225" x="301.25" y="228.6157">2.登录（用户名、密码、身份）</text><polygon fill="#A80036" points="837.5,269.3793,850,274.3793,837.5,279.3793,842.5,274.3793" style="stroke: #A80036; stroke-width: 1.25;"/><line style="stroke: #A80036; stroke-width: 1.25;" x1="553.75" x2="845" y1="274.3793" y2="274.3793"/><text fill="#000000" font-family="sans-serif" font-size="16.25" lengthAdjust="spacingAndGlyphs" textLength="225" x="562.5" y="268.3087">3.登录（用户名、密码、身份）</text><polygon fill="#A80036" points="1015,309.0723,1027.5,314.0723,1015,319.0723,1020,314.0723" style="stroke: #A80036; stroke-width: 1.25;"/><line style="stroke: #A80036; stroke-width: 1.25;" x1="865" x2="1022.5" y1="314.0723" y2="314.0723"/><text fill="#000000" font-family="sans-serif" font-size="16.25" lengthAdjust="spacingAndGlyphs" textLength="78.75" x="873.75" y="308.0017">4.查找用户</text><polygon fill="#A80036" points="1121.25,348.7653,1133.75,353.7653,1121.25,358.7653,1126.25,353.7653" style="stroke: #A80036; stroke-width: 1.25;"/><line style="stroke: #A80036; stroke-width: 1.25;" x1="1042.5" x2="1128.75" y1="353.7653" y2="353.7653"/><text fill="#000000" font-family="sans-serif" font-size="16.25" lengthAdjust="spacingAndGlyphs" textLength="13.75" x="1051.25" y="347.6947">5.</text><polygon fill="#A80036" points="878.75,388.4583,866.25,393.4583,878.75,398.4583,873.75,393.4583" style="stroke: #A80036; stroke-width: 1.25;"/><line style="stroke: #A80036; stroke-width: 1.25;" x1="871.25" x2="1035" y1="393.4583" y2="393.4583"/><text fill="#000000" font-family="sans-serif" font-size="16.25" lengthAdjust="spacingAndGlyphs" textLength="135" x="886.25" y="387.3877">6.返回USERS对象</text><polygon fill="#A80036" points="567.5,428.1512,555,433.1512,567.5,438.1512,562.5,433.1512" style="stroke: #A80036; stroke-width: 1.25;"/><line style="stroke: #A80036; stroke-width: 1.25;" x1="560" x2="857.5" y1="433.1512" y2="433.1512"/><text fill="#000000" font-family="sans-serif" font-size="16.25" lengthAdjust="spacingAndGlyphs" textLength="135" x="575" y="427.0807">7.返回USERS对象</text><line style="stroke: #A80036; stroke-width: 1.25;" x1="553.75" x2="606.25" y1="472.8442" y2="472.8442"/><line style="stroke: #A80036; stroke-width: 1.25;" x1="606.25" x2="606.25" y1="472.8442" y2="489.0942"/><line style="stroke: #A80036; stroke-width: 1.25;" x1="555" x2="606.25" y1="489.0942" y2="489.0942"/><polygon fill="#A80036" points="567.5,484.0942,555,489.0942,567.5,494.0942,562.5,489.0942" style="stroke: #A80036; stroke-width: 1.25;"/><text fill="#000000" font-family="sans-serif" font-size="16.25" lengthAdjust="spacingAndGlyphs" textLength="200" x="562.5" y="466.7737">8.判断USERS对象是否为空</text><line style="stroke: #A80036; stroke-width: 1.25;" x1="553.75" x2="606.25" y1="535.0372" y2="535.0372"/><line style="stroke: #A80036; stroke-width: 1.25;" x1="606.25" x2="606.25" y1="535.0372" y2="551.2872"/><line style="stroke: #A80036; stroke-width: 1.25;" x1="547.5" x2="606.25" y1="551.2872" y2="551.2872"/><polygon fill="#A80036" points="560,546.2872,547.5,551.2872,560,556.2872,555,551.2872" style="stroke: #A80036; stroke-width: 1.25;"/><text fill="#000000" font-family="sans-serif" font-size="16.25" lengthAdjust="spacingAndGlyphs" textLength="281.25" x="562.5" y="528.9667">9.判断USERS对象密码、身份是否正确</text><polygon fill="#A80036" points="306.25,579.7302,293.75,584.7302,306.25,589.7302,301.25,584.7302" style="stroke: #A80036; stroke-width: 1.25;"/><line style="stroke: #A80036; stroke-width: 1.25;" x1="298.75" x2="546.25" y1="584.7302" y2="584.7302"/><text fill="#000000" font-family="sans-serif" font-size="16.25" lengthAdjust="spacingAndGlyphs" textLength="143.75" x="313.75" y="578.6597">10.返回USERS对象</text><polygon fill="#A80036" points="45,619.4232,32.5,624.4232,45,629.4232,40,624.4232" style="stroke: #A80036; stroke-width: 1.25;"/><line style="stroke: #A80036; stroke-width: 1.25;" x1="37.5" x2="285" y1="624.4232" y2="624.4232"/><text fill="#000000" font-family="sans-serif" font-size="16.25" lengthAdjust="spacingAndGlyphs" textLength="136.25" x="52.5" y="618.3527">11.返回对应主界面</text><!--MD5=[e0c34875bbb33dc2d4f1f7993772bec0]
@startuml
title 基于GitHub的实验管理平台- -登陆用例的顺序图
actor 用户
用户 -> 登陆界面:1.登录（用户名、密码、身份）
activate 用户
activate 登陆界面
登陆界面 -> 登陆管理: 2.登录（用户名、密码、身份）
database 服务器
database 数据库存储
activate 登陆管理
登陆管理 -> 服务器:3.登录（用户名、密码、身份）
activate 服务器
服务器-> 数据库存储:4.查找用户
activate 数据库存储
数据库存储-> USERS:5.

数据库存储->服务器:6.返回USERS对象
deactivate 数据库存储

服务器->登陆管理:7.返回USERS对象
deactivate 服务器

登陆管理->登陆管理:8.判断USERS对象是否为空
登陆管理->登陆管理:9.判断USERS对象密码、身份是否正确
deactivate 登陆管理
登陆管理->登陆界面:10.返回USERS对象


登陆界面->用户:11.返回对应主界面
deactivate 登陆界面
deactivate 用户

@enduml

PlantUML version 1.2019.11(Sun Sep 22 18:02:15 CST 2019)
(GPL source distribution)
Java Runtime: OpenJDK Runtime Environment
JVM: OpenJDK 64-Bit Server VM
Java Version: 11.0.5+10-b520.38
Operating System: Windows 10
Default Encoding: GBK
Language: zh
Country: CN
--></g></svg>