<?xml version="1.0" encoding="UTF-8" standalone="no"?><svg xmlns="http://www.w3.org/2000/svg" xmlns:xlink="http://www.w3.org/1999/xlink" contentScriptType="application/ecmascript" contentStyleType="text/css" height="602.5px" preserveAspectRatio="none" style="width:1016px;height:602px;" version="1.1" viewBox="0 0 1016 602" width="1016.25px" zoomAndPan="magnify"><defs><filter height="300%" id="f1rkd2yrp7pcs1" width="300%" x="-1" y="-1"><feGaussianBlur result="blurOut" stdDeviation="2.5"/><feColorMatrix in="blurOut" result="blurOut2" type="matrix" values="0 0 0 0 0 0 0 0 0 0 0 0 0 0 0 0 0 0 .4 0"/><feOffset dx="5.0" dy="5.0" in="blurOut2" result="blurOut3"/><feBlend in="SourceGraphic" in2="blurOut3" mode="normal"/></filter></defs><g><text fill="#000000" font-family="sans-serif" font-size="17.5" font-weight="bold" lengthAdjust="spacingAndGlyphs" textLength="370" x="317.5" y="32.5549">基于GitHub的实验管理平台--评分用例的顺序图</text><rect fill="#FFFFFF" filter="url(#f1rkd2yrp7pcs1)" height="302.851" style="stroke: #A80036; stroke-width: 1.25;" width="12.5" x="53.75" y="165.3003"/><rect fill="#FFFFFF" filter="url(#f1rkd2yrp7pcs1)" height="215.965" style="stroke: #A80036; stroke-width: 1.25;" width="12.5" x="201.25" y="252.1863"/><rect fill="#FFFFFF" filter="url(#f1rkd2yrp7pcs1)" height="176.272" style="stroke: #A80036; stroke-width: 1.25;" width="12.5" x="348.75" y="291.8793"/><rect fill="#FFFFFF" filter="url(#f1rkd2yrp7pcs1)" height="136.579" style="stroke: #A80036; stroke-width: 1.25;" width="12.5" x="577.5" y="331.5723"/><rect fill="#FFFFFF" filter="url(#f1rkd2yrp7pcs1)" height="39.693" style="stroke: #A80036; stroke-width: 1.25;" width="12.5" x="925" y="428.4583"/><line style="stroke: #A80036; stroke-width: 1.25; stroke-dasharray: 5.0,5.0;" x1="60" x2="60" y1="152.8003" y2="490.6512"/><line style="stroke: #A80036; stroke-width: 1.25; stroke-dasharray: 5.0,5.0;" x1="207.5" x2="207.5" y1="152.8003" y2="490.6512"/><line style="stroke: #A80036; stroke-width: 1.25; stroke-dasharray: 5.0,5.0;" x1="355" x2="355" y1="152.8003" y2="490.6512"/><line style="stroke: #A80036; stroke-width: 1.25; stroke-dasharray: 5.0,5.0;" x1="583.75" x2="583.75" y1="152.8003" y2="490.6512"/><line style="stroke: #A80036; stroke-width: 1.25; stroke-dasharray: 5.0,5.0;" x1="931.25" x2="931.25" y1="152.8003" y2="490.6512"/><text fill="#000000" font-family="sans-serif" font-size="17.5" lengthAdjust="spacingAndGlyphs" textLength="92.5" x="10" y="148.9551">TEACHERS</text><ellipse cx="60" cy="57.6501" fill="#FEFECE" filter="url(#f1rkd2yrp7pcs1)" rx="10" ry="10" style="stroke: #A80036; stroke-width: 2.5;"/><path d="M60,67.6501 L60,101.4001 M43.75,77.6501 L76.25,77.6501 M60,101.4001 L43.75,120.1501 M60,101.4001 L76.25,120.1501 " fill="none" filter="url(#f1rkd2yrp7pcs1)" style="stroke: #A80036; stroke-width: 2.5;"/><text fill="#000000" font-family="sans-serif" font-size="17.5" lengthAdjust="spacingAndGlyphs" textLength="92.5" x="10" y="509.4562">TEACHERS</text><ellipse cx="60" cy="525.8014" fill="#FEFECE" filter="url(#f1rkd2yrp7pcs1)" rx="10" ry="10" style="stroke: #A80036; stroke-width: 2.5;"/><path d="M60,535.8014 L60,569.5514 M43.75,545.8014 L76.25,545.8014 M60,569.5514 L43.75,588.3014 M60,569.5514 L76.25,588.3014 " fill="none" filter="url(#f1rkd2yrp7pcs1)" style="stroke: #A80036; stroke-width: 2.5;"/><rect fill="#FEFECE" filter="url(#f1rkd2yrp7pcs1)" height="41.4001" style="stroke: #A80036; stroke-width: 1.875;" width="87.5" x="161.25" y="105.1501"/><text fill="#000000" font-family="sans-serif" font-size="17.5" lengthAdjust="spacingAndGlyphs" textLength="70" x="170" y="133.9551">课程列表</text><rect fill="#FEFECE" filter="url(#f1rkd2yrp7pcs1)" height="41.4001" style="stroke: #A80036; stroke-width: 1.875;" width="87.5" x="161.25" y="489.4012"/><text fill="#000000" font-family="sans-serif" font-size="17.5" lengthAdjust="spacingAndGlyphs" textLength="70" x="170" y="518.2062">课程列表</text><rect fill="#FEFECE" filter="url(#f1rkd2yrp7pcs1)" height="41.4001" style="stroke: #A80036; stroke-width: 1.875;" width="87.5" x="308.75" y="105.1501"/><text fill="#000000" font-family="sans-serif" font-size="17.5" lengthAdjust="spacingAndGlyphs" textLength="70" x="317.5" y="133.9551">课程信息</text><rect fill="#FEFECE" filter="url(#f1rkd2yrp7pcs1)" height="41.4001" style="stroke: #A80036; stroke-width: 1.875;" width="87.5" x="308.75" y="489.4012"/><text fill="#000000" font-family="sans-serif" font-size="17.5" lengthAdjust="spacingAndGlyphs" textLength="70" x="317.5" y="518.2062">课程信息</text><rect fill="#FEFECE" filter="url(#f1rkd2yrp7pcs1)" height="41.4001" style="stroke: #A80036; stroke-width: 1.875;" width="87.5" x="537.5" y="105.1501"/><text fill="#000000" font-family="sans-serif" font-size="17.5" lengthAdjust="spacingAndGlyphs" textLength="70" x="546.25" y="133.9551">成绩列表</text><rect fill="#FEFECE" filter="url(#f1rkd2yrp7pcs1)" height="41.4001" style="stroke: #A80036; stroke-width: 1.875;" width="87.5" x="537.5" y="489.4012"/><text fill="#000000" font-family="sans-serif" font-size="17.5" lengthAdjust="spacingAndGlyphs" textLength="70" x="546.25" y="518.2062">成绩列表</text><rect fill="#FEFECE" filter="url(#f1rkd2yrp7pcs1)" height="41.4001" style="stroke: #A80036; stroke-width: 1.875;" width="122.5" x="867.5" y="105.1501"/><text fill="#000000" font-family="sans-serif" font-size="17.5" lengthAdjust="spacingAndGlyphs" textLength="105" x="876.25" y="133.9551">实验成绩页面</text><rect fill="#FEFECE" filter="url(#f1rkd2yrp7pcs1)" height="41.4001" style="stroke: #A80036; stroke-width: 1.875;" width="122.5" x="867.5" y="489.4012"/><text fill="#000000" font-family="sans-serif" font-size="17.5" lengthAdjust="spacingAndGlyphs" textLength="105" x="876.25" y="518.2062">实验成绩页面</text><rect fill="#FFFFFF" filter="url(#f1rkd2yrp7pcs1)" height="302.851" style="stroke: #A80036; stroke-width: 1.25;" width="12.5" x="53.75" y="165.3003"/><rect fill="#FFFFFF" filter="url(#f1rkd2yrp7pcs1)" height="215.965" style="stroke: #A80036; stroke-width: 1.25;" width="12.5" x="201.25" y="252.1863"/><rect fill="#FFFFFF" filter="url(#f1rkd2yrp7pcs1)" height="176.272" style="stroke: #A80036; stroke-width: 1.25;" width="12.5" x="348.75" y="291.8793"/><rect fill="#FFFFFF" filter="url(#f1rkd2yrp7pcs1)" height="136.579" style="stroke: #A80036; stroke-width: 1.25;" width="12.5" x="577.5" y="331.5723"/><rect fill="#FFFFFF" filter="url(#f1rkd2yrp7pcs1)" height="39.693" style="stroke: #A80036; stroke-width: 1.25;" width="12.5" x="925" y="428.4583"/><rect fill="#EEEEEE" filter="url(#f1rkd2yrp7pcs1)" height="3.75" style="stroke: #EEEEEE; stroke-width: 1.25;" width="997.5" x="3.75" y="192.6468"/><line style="stroke: #000000; stroke-width: 1.25;" x1="3.75" x2="1001.25" y1="192.6468" y2="192.6468"/><line style="stroke: #000000; stroke-width: 1.25;" x1="3.75" x2="1001.25" y1="196.3968" y2="196.3968"/><rect fill="#EEEEEE" filter="url(#f1rkd2yrp7pcs1)" height="32.193" style="stroke: #000000; stroke-width: 2.5;" width="87.5" x="458.75" y="177.8003"/><text fill="#000000" font-family="sans-serif" font-size="16.25" font-weight="bold" lengthAdjust="spacingAndGlyphs" textLength="65" x="466.25" y="201.4227">查看成绩</text><polygon fill="#A80036" points="186.25,247.1863,198.75,252.1863,186.25,257.1863,191.25,252.1863" style="stroke: #A80036; stroke-width: 1.25;"/><line style="stroke: #A80036; stroke-width: 1.25;" x1="66.25" x2="193.75" y1="252.1863" y2="252.1863"/><text fill="#000000" font-family="sans-serif" font-size="16.25" lengthAdjust="spacingAndGlyphs" textLength="111.25" x="75" y="246.1157">1.进入课程列表</text><polygon fill="#A80036" points="333.75,286.8793,346.25,291.8793,333.75,296.8793,338.75,291.8793" style="stroke: #A80036; stroke-width: 1.25;"/><line style="stroke: #A80036; stroke-width: 1.25;" x1="213.75" x2="341.25" y1="291.8793" y2="291.8793"/><text fill="#000000" font-family="sans-serif" font-size="16.25" lengthAdjust="spacingAndGlyphs" textLength="111.25" x="222.5" y="285.8087">2.进入某一课程</text><polygon fill="#A80036" points="562.5,326.5723,575,331.5723,562.5,336.5723,567.5,331.5723" style="stroke: #A80036; stroke-width: 1.25;"/><line style="stroke: #A80036; stroke-width: 1.25;" x1="361.25" x2="570" y1="331.5723" y2="331.5723"/><text fill="#000000" font-family="sans-serif" font-size="16.25" lengthAdjust="spacingAndGlyphs" textLength="192.5" x="370" y="325.5017">3.查看该课程下所有的成绩</text><rect fill="#EEEEEE" filter="url(#f1rkd2yrp7pcs1)" height="3.75" style="stroke: #EEEEEE; stroke-width: 1.25;" width="997.5" x="3.75" y="368.9188"/><line style="stroke: #000000; stroke-width: 1.25;" x1="3.75" x2="1001.25" y1="368.9188" y2="368.9188"/><line style="stroke: #000000; stroke-width: 1.25;" x1="3.75" x2="1001.25" y1="372.6688" y2="372.6688"/><rect fill="#EEEEEE" filter="url(#f1rkd2yrp7pcs1)" height="32.193" style="stroke: #000000; stroke-width: 2.5;" width="87.5" x="458.75" y="354.0723"/><text fill="#000000" font-family="sans-serif" font-size="16.25" font-weight="bold" lengthAdjust="spacingAndGlyphs" textLength="65" x="466.25" y="377.6947">评定成绩</text><polygon fill="#A80036" points="910,423.4583,922.5,428.4583,910,433.4583,915,428.4583" style="stroke: #A80036; stroke-width: 1.25;"/><line style="stroke: #A80036; stroke-width: 1.25;" x1="590" x2="917.5" y1="428.4583" y2="428.4583"/><text fill="#000000" font-family="sans-serif" font-size="16.25" lengthAdjust="spacingAndGlyphs" textLength="311.25" x="598.75" y="422.3877">4. 录入并提交某学生该课程对应实验的成绩</text><polygon fill="#A80036" points="73.75,463.1512,61.25,468.1512,73.75,473.1512,68.75,468.1512" style="stroke: #A80036; stroke-width: 1.25;"/><line style="stroke: #A80036; stroke-width: 1.25;" x1="66.25" x2="930" y1="468.1512" y2="468.1512"/><text fill="#000000" font-family="sans-serif" font-size="16.25" lengthAdjust="spacingAndGlyphs" textLength="181.25" x="81.25" y="462.0807">5. 返回更新后的成绩列表</text><!--MD5=[b74ecde0d019939502c6c269bc112a30]
@startuml
title 基于GitHub的实验管理平台- -评分用例的顺序图
actor TEACHERS
== 查看成绩 ==
activate TEACHERS
TEACHERS -> 课程列表:1.进入课程列表
activate 课程列表
课程列表 -> 课程信息:2.进入某一课程
activate 课程信息
课程信息 -> 成绩列表:3.查看该课程下所有的成绩
activate 成绩列表
== 评定成绩 ==

成绩列表 -> 实验成绩页面:4. 录入并提交某学生该课程对应实验的成绩
activate 实验成绩页面
实验成绩页面 -> TEACHERS:5. 返回更新后的成绩列表
deactivate 实验成绩页面
deactivate 成绩列表
deactivate 课程信息
deactivate 课程列表
deactivate TEACHERS
@enduml

PlantUML version 1.2019.11(Sun Sep 22 18:02:15 CST 2019)
(GPL source distribution)
Java Runtime: OpenJDK Runtime Environment
JVM: OpenJDK 64-Bit Server VM
Java Version: 11.0.5+10-b520.38
Operating System: Windows 10
Default Encoding: GBK
Language: zh
Country: CN
--></g></svg>