<?xml version="1.0" encoding="UTF-8" standalone="no"?><svg xmlns="http://www.w3.org/2000/svg" xmlns:xlink="http://www.w3.org/1999/xlink" contentScriptType="application/ecmascript" contentStyleType="text/css" height="448.75px" preserveAspectRatio="none" style="width:501px;height:448px;" version="1.1" viewBox="0 0 501 448" width="501.25px" zoomAndPan="magnify"><defs><filter height="300%" id="fxcwdqjm8reqw" width="300%" x="-1" y="-1"><feGaussianBlur result="blurOut" stdDeviation="2.5"/><feColorMatrix in="blurOut" result="blurOut2" type="matrix" values="0 0 0 0 0 0 0 0 0 0 0 0 0 0 0 0 0 0 .4 0"/><feOffset dx="5.0" dy="5.0" in="blurOut2" result="blurOut3"/><feBlend in="SourceGraphic" in2="blurOut3" mode="normal"/></filter></defs><g><text fill="#000000" font-family="sans-serif" font-size="17.5" font-weight="bold" lengthAdjust="spacingAndGlyphs" textLength="352.5" x="75.9375" y="32.5549">基于GitHub的实验管理平台--课程列表顺序图</text><rect fill="#FFFFFF" filter="url(#fxcwdqjm8reqw)" height="148.772" style="stroke: #A80036; stroke-width: 1.25;" width="12.5" x="30.625" y="165.3003"/><rect fill="#FFFFFF" filter="url(#fxcwdqjm8reqw)" height="119.079" style="stroke: #A80036; stroke-width: 1.25;" width="12.5" x="145.625" y="194.9933"/><rect fill="#FFFFFF" filter="url(#fxcwdqjm8reqw)" height="79.386" style="stroke: #A80036; stroke-width: 1.25;" width="12.5" x="260.625" y="234.6863"/><rect fill="#FFFFFF" filter="url(#fxcwdqjm8reqw)" height="39.693" style="stroke: #A80036; stroke-width: 1.25;" width="12.5" x="440.625" y="274.3793"/><line style="stroke: #A80036; stroke-width: 1.25; stroke-dasharray: 5.0,5.0;" x1="36.25" x2="36.25" y1="152.8003" y2="336.5723"/><line style="stroke: #A80036; stroke-width: 1.25; stroke-dasharray: 5.0,5.0;" x1="151.875" x2="151.875" y1="152.8003" y2="336.5723"/><line style="stroke: #A80036; stroke-width: 1.25; stroke-dasharray: 5.0,5.0;" x1="266.875" x2="266.875" y1="152.8003" y2="336.5723"/><line style="stroke: #A80036; stroke-width: 1.25; stroke-dasharray: 5.0,5.0;" x1="446.875" x2="446.875" y1="152.8003" y2="336.5723"/><text fill="#000000" font-family="sans-serif" font-size="17.5" lengthAdjust="spacingAndGlyphs" textLength="46.25" x="10" y="148.9551">USER</text><ellipse cx="36.875" cy="57.6501" fill="#FEFECE" filter="url(#fxcwdqjm8reqw)" rx="10" ry="10" style="stroke: #A80036; stroke-width: 2.5;"/><path d="M36.875,67.6501 L36.875,101.4001 M20.625,77.6501 L53.125,77.6501 M36.875,101.4001 L20.625,120.1501 M36.875,101.4001 L53.125,120.1501 " fill="none" filter="url(#fxcwdqjm8reqw)" style="stroke: #A80036; stroke-width: 2.5;"/><text fill="#000000" font-family="sans-serif" font-size="17.5" lengthAdjust="spacingAndGlyphs" textLength="46.25" x="10" y="355.3772">USER</text><ellipse cx="36.875" cy="371.7224" fill="#FEFECE" filter="url(#fxcwdqjm8reqw)" rx="10" ry="10" style="stroke: #A80036; stroke-width: 2.5;"/><path d="M36.875,381.7224 L36.875,415.4724 M20.625,391.7224 L53.125,391.7224 M36.875,415.4724 L20.625,434.2224 M36.875,415.4724 L53.125,434.2224 " fill="none" filter="url(#fxcwdqjm8reqw)" style="stroke: #A80036; stroke-width: 2.5;"/><rect fill="#FEFECE" filter="url(#fxcwdqjm8reqw)" height="41.4001" style="stroke: #A80036; stroke-width: 1.875;" width="70" x="114.375" y="105.1501"/><text fill="#000000" font-family="sans-serif" font-size="17.5" lengthAdjust="spacingAndGlyphs" textLength="52.5" x="123.125" y="133.9551">主界面</text><rect fill="#FEFECE" filter="url(#fxcwdqjm8reqw)" height="41.4001" style="stroke: #A80036; stroke-width: 1.875;" width="70" x="114.375" y="335.3223"/><text fill="#000000" font-family="sans-serif" font-size="17.5" lengthAdjust="spacingAndGlyphs" textLength="52.5" x="123.125" y="364.1272">主界面</text><text fill="#000000" font-family="sans-serif" font-size="17.5" lengthAdjust="spacingAndGlyphs" textLength="52.5" x="236.875" y="148.9551">服务器</text><path d="M244.375,83.9001 C244.375,71.4001 266.875,71.4001 266.875,71.4001 C266.875,71.4001 289.375,71.4001 289.375,83.9001 L289.375,116.4001 C289.375,128.9001 266.875,128.9001 266.875,128.9001 C266.875,128.9001 244.375,128.9001 244.375,116.4001 L244.375,83.9001 " fill="#FEFECE" filter="url(#fxcwdqjm8reqw)" style="stroke: #000000; stroke-width: 1.875;"/><path d="M244.375,83.9001 C244.375,96.4001 266.875,96.4001 266.875,96.4001 C266.875,96.4001 289.375,96.4001 289.375,83.9001 " fill="none" style="stroke: #000000; stroke-width: 1.875;"/><text fill="#000000" font-family="sans-serif" font-size="17.5" lengthAdjust="spacingAndGlyphs" textLength="52.5" x="236.875" y="355.3772">服务器</text><path d="M244.375,371.7224 C244.375,359.2224 266.875,359.2224 266.875,359.2224 C266.875,359.2224 289.375,359.2224 289.375,371.7224 L289.375,404.2224 C289.375,416.7224 266.875,416.7224 266.875,416.7224 C266.875,416.7224 244.375,416.7224 244.375,404.2224 L244.375,371.7224 " fill="#FEFECE" filter="url(#fxcwdqjm8reqw)" style="stroke: #000000; stroke-width: 1.875;"/><path d="M244.375,371.7224 C244.375,384.2224 266.875,384.2224 266.875,384.2224 C266.875,384.2224 289.375,384.2224 289.375,371.7224 " fill="none" style="stroke: #000000; stroke-width: 1.875;"/><text fill="#000000" font-family="sans-serif" font-size="17.5" lengthAdjust="spacingAndGlyphs" textLength="87.5" x="399.375" y="148.9551">数据库存储</text><path d="M424.375,83.9001 C424.375,71.4001 446.875,71.4001 446.875,71.4001 C446.875,71.4001 469.375,71.4001 469.375,83.9001 L469.375,116.4001 C469.375,128.9001 446.875,128.9001 446.875,128.9001 C446.875,128.9001 424.375,128.9001 424.375,116.4001 L424.375,83.9001 " fill="#FEFECE" filter="url(#fxcwdqjm8reqw)" style="stroke: #000000; stroke-width: 1.875;"/><path d="M424.375,83.9001 C424.375,96.4001 446.875,96.4001 446.875,96.4001 C446.875,96.4001 469.375,96.4001 469.375,83.9001 " fill="none" style="stroke: #000000; stroke-width: 1.875;"/><text fill="#000000" font-family="sans-serif" font-size="17.5" lengthAdjust="spacingAndGlyphs" textLength="87.5" x="399.375" y="355.3772">数据库存储</text><path d="M424.375,371.7224 C424.375,359.2224 446.875,359.2224 446.875,359.2224 C446.875,359.2224 469.375,359.2224 469.375,371.7224 L469.375,404.2224 C469.375,416.7224 446.875,416.7224 446.875,416.7224 C446.875,416.7224 424.375,416.7224 424.375,404.2224 L424.375,371.7224 " fill="#FEFECE" filter="url(#fxcwdqjm8reqw)" style="stroke: #000000; stroke-width: 1.875;"/><path d="M424.375,371.7224 C424.375,384.2224 446.875,384.2224 446.875,384.2224 C446.875,384.2224 469.375,384.2224 469.375,371.7224 " fill="none" style="stroke: #000000; stroke-width: 1.875;"/><rect fill="#FFFFFF" filter="url(#fxcwdqjm8reqw)" height="148.772" style="stroke: #A80036; stroke-width: 1.25;" width="12.5" x="30.625" y="165.3003"/><rect fill="#FFFFFF" filter="url(#fxcwdqjm8reqw)" height="119.079" style="stroke: #A80036; stroke-width: 1.25;" width="12.5" x="145.625" y="194.9933"/><rect fill="#FFFFFF" filter="url(#fxcwdqjm8reqw)" height="79.386" style="stroke: #A80036; stroke-width: 1.25;" width="12.5" x="260.625" y="234.6863"/><rect fill="#FFFFFF" filter="url(#fxcwdqjm8reqw)" height="39.693" style="stroke: #A80036; stroke-width: 1.25;" width="12.5" x="440.625" y="274.3793"/><polygon fill="#A80036" points="130.625,189.9933,143.125,194.9933,130.625,199.9933,135.625,194.9933" style="stroke: #A80036; stroke-width: 1.25;"/><line style="stroke: #A80036; stroke-width: 1.25;" x1="43.125" x2="138.125" y1="194.9933" y2="194.9933"/><text fill="#000000" font-family="sans-serif" font-size="16.25" lengthAdjust="spacingAndGlyphs" textLength="78.75" x="51.875" y="188.9227">1.用户登录</text><polygon fill="#A80036" points="245.625,229.6863,258.125,234.6863,245.625,239.6863,250.625,234.6863" style="stroke: #A80036; stroke-width: 1.25;"/><line style="stroke: #A80036; stroke-width: 1.25;" x1="158.125" x2="253.125" y1="234.6863" y2="234.6863"/><text fill="#000000" font-family="sans-serif" font-size="16.25" lengthAdjust="spacingAndGlyphs" textLength="78.75" x="166.875" y="228.6157">2.选择学期</text><polygon fill="#A80036" points="425.625,269.3793,438.125,274.3793,425.625,279.3793,430.625,274.3793" style="stroke: #A80036; stroke-width: 1.25;"/><line style="stroke: #A80036; stroke-width: 1.25;" x1="273.125" x2="433.125" y1="274.3793" y2="274.3793"/><text fill="#000000" font-family="sans-serif" font-size="16.25" lengthAdjust="spacingAndGlyphs" textLength="143.75" x="281.875" y="268.3087">4.请求查看课程列表</text><polygon fill="#A80036" points="165.625,309.0723,153.125,314.0723,165.625,319.0723,160.625,314.0723" style="stroke: #A80036; stroke-width: 1.25;"/><line style="stroke: #A80036; stroke-width: 1.25;" x1="158.125" x2="445.625" y1="314.0723" y2="314.0723"/><text fill="#000000" font-family="sans-serif" font-size="16.25" lengthAdjust="spacingAndGlyphs" textLength="111.25" x="173.125" y="308.0017">5.返回课程列表</text><!--MD5=[8c194babc52625717e6428adb73a6b7c]
@startuml
title 基于GitHub的实验管理平台- -课程列表顺序图
actor USER
activate USER
USER -> 主界面: 1.用户登录
activate 主界面
database 服务器
database 数据库存储
主界面->服务器:2.选择学期
activate 服务器
服务器-> 数据库存储:4.请求查看课程列表
activate 数据库存储
数据库存储->主界面:5.返回课程列表
deactivate 数据库存储
deactivate 服务器
deactivate 主界面
deactivate USER
@enduml

PlantUML version 1.2019.11(Sun Sep 22 18:02:15 CST 2019)
(GPL source distribution)
Java Runtime: OpenJDK Runtime Environment
JVM: OpenJDK 64-Bit Server VM
Java Version: 11.0.5+10-b520.38
Operating System: Windows 10
Default Encoding: GBK
Language: zh
Country: CN
--></g></svg>