<?xml version="1.0" encoding="UTF-8" standalone="no"?><svg xmlns="http://www.w3.org/2000/svg" xmlns:xlink="http://www.w3.org/1999/xlink" contentScriptType="application/ecmascript" contentStyleType="text/css" height="742.5px" preserveAspectRatio="none" style="width:605px;height:742px;" version="1.1" viewBox="0 0 605 742" width="605px" zoomAndPan="magnify"><defs><filter height="300%" id="f8ukrn4s2i1sy" width="300%" x="-1" y="-1"><feGaussianBlur result="blurOut" stdDeviation="2.5"/><feColorMatrix in="blurOut" result="blurOut2" type="matrix" values="0 0 0 0 0 0 0 0 0 0 0 0 0 0 0 0 0 0 .4 0"/><feOffset dx="5.0" dy="5.0" in="blurOut2" result="blurOut3"/><feBlend in="SourceGraphic" in2="blurOut3" mode="normal"/></filter></defs><g><text fill="#000000" font-family="sans-serif" font-size="17.5" font-weight="bold" lengthAdjust="spacingAndGlyphs" textLength="370" x="118.75" y="32.5549">基于GitHub的实验管理平台--选课用例的顺序图</text><rect fill="#FFFFFF" filter="url(#f8ukrn4s2i1sy)" height="442.8729" style="stroke: #A80036; stroke-width: 1.25;" width="12.5" x="36.25" y="165.3003"/><rect fill="#FFFFFF" filter="url(#f8ukrn4s2i1sy)" height="413.1799" style="stroke: #A80036; stroke-width: 1.25;" width="12.5" x="183.75" y="194.9933"/><rect fill="#FFFFFF" filter="url(#f8ukrn4s2i1sy)" height="175.022" style="stroke: #A80036; stroke-width: 1.25;" width="12.5" x="337.5" y="234.6863"/><rect fill="#FFFFFF" filter="url(#f8ukrn4s2i1sy)" height="79.386" style="stroke: #A80036; stroke-width: 1.25;" width="12.5" x="337.5" y="528.7872"/><rect fill="#FFFFFF" filter="url(#f8ukrn4s2i1sy)" height="39.693" style="stroke: #A80036; stroke-width: 1.25;" width="12.5" x="543.75" y="274.3793"/><rect fill="#FFFFFF" filter="url(#f8ukrn4s2i1sy)" height="39.693" style="stroke: #A80036; stroke-width: 1.25;" width="12.5" x="543.75" y="568.4802"/><line style="stroke: #A80036; stroke-width: 1.25; stroke-dasharray: 5.0,5.0;" x1="42.5" x2="42.5" y1="152.8003" y2="630.6732"/><line style="stroke: #A80036; stroke-width: 1.25; stroke-dasharray: 5.0,5.0;" x1="190" x2="190" y1="152.8003" y2="630.6732"/><line style="stroke: #A80036; stroke-width: 1.25; stroke-dasharray: 5.0,5.0;" x1="343.75" x2="343.75" y1="152.8003" y2="630.6732"/><line style="stroke: #A80036; stroke-width: 1.25; stroke-dasharray: 5.0,5.0;" x1="550" x2="550" y1="152.8003" y2="630.6732"/><text fill="#000000" font-family="sans-serif" font-size="17.5" lengthAdjust="spacingAndGlyphs" textLength="57.5" x="10" y="148.9551">USERS</text><ellipse cx="42.5" cy="57.6501" fill="#FEFECE" filter="url(#f8ukrn4s2i1sy)" rx="10" ry="10" style="stroke: #A80036; stroke-width: 2.5;"/><path d="M42.5,67.6501 L42.5,101.4001 M26.25,77.6501 L58.75,77.6501 M42.5,101.4001 L26.25,120.1501 M42.5,101.4001 L58.75,120.1501 " fill="none" filter="url(#f8ukrn4s2i1sy)" style="stroke: #A80036; stroke-width: 2.5;"/><text fill="#000000" font-family="sans-serif" font-size="17.5" lengthAdjust="spacingAndGlyphs" textLength="57.5" x="10" y="649.4781">USERS</text><ellipse cx="42.5" cy="665.8234" fill="#FEFECE" filter="url(#f8ukrn4s2i1sy)" rx="10" ry="10" style="stroke: #A80036; stroke-width: 2.5;"/><path d="M42.5,675.8234 L42.5,709.5734 M26.25,685.8234 L58.75,685.8234 M42.5,709.5734 L26.25,728.3234 M42.5,709.5734 L58.75,728.3234 " fill="none" filter="url(#f8ukrn4s2i1sy)" style="stroke: #A80036; stroke-width: 2.5;"/><rect fill="#FEFECE" filter="url(#f8ukrn4s2i1sy)" height="41.4001" style="stroke: #A80036; stroke-width: 1.875;" width="87.5" x="143.75" y="105.1501"/><text fill="#000000" font-family="sans-serif" font-size="17.5" lengthAdjust="spacingAndGlyphs" textLength="70" x="152.5" y="133.9551">选课界面</text><rect fill="#FEFECE" filter="url(#f8ukrn4s2i1sy)" height="41.4001" style="stroke: #A80036; stroke-width: 1.875;" width="87.5" x="143.75" y="629.4232"/><text fill="#000000" font-family="sans-serif" font-size="17.5" lengthAdjust="spacingAndGlyphs" textLength="70" x="152.5" y="658.2281">选课界面</text><text fill="#000000" font-family="sans-serif" font-size="17.5" lengthAdjust="spacingAndGlyphs" textLength="52.5" x="313.75" y="148.9551">服务器</text><path d="M321.25,83.9001 C321.25,71.4001 343.75,71.4001 343.75,71.4001 C343.75,71.4001 366.25,71.4001 366.25,83.9001 L366.25,116.4001 C366.25,128.9001 343.75,128.9001 343.75,128.9001 C343.75,128.9001 321.25,128.9001 321.25,116.4001 L321.25,83.9001 " fill="#FEFECE" filter="url(#f8ukrn4s2i1sy)" style="stroke: #000000; stroke-width: 1.875;"/><path d="M321.25,83.9001 C321.25,96.4001 343.75,96.4001 343.75,96.4001 C343.75,96.4001 366.25,96.4001 366.25,83.9001 " fill="none" style="stroke: #000000; stroke-width: 1.875;"/><text fill="#000000" font-family="sans-serif" font-size="17.5" lengthAdjust="spacingAndGlyphs" textLength="52.5" x="313.75" y="649.4781">服务器</text><path d="M321.25,665.8234 C321.25,653.3234 343.75,653.3234 343.75,653.3234 C343.75,653.3234 366.25,653.3234 366.25,665.8234 L366.25,698.3234 C366.25,710.8234 343.75,710.8234 343.75,710.8234 C343.75,710.8234 321.25,710.8234 321.25,698.3234 L321.25,665.8234 " fill="#FEFECE" filter="url(#f8ukrn4s2i1sy)" style="stroke: #000000; stroke-width: 1.875;"/><path d="M321.25,665.8234 C321.25,678.3234 343.75,678.3234 343.75,678.3234 C343.75,678.3234 366.25,678.3234 366.25,665.8234 " fill="none" style="stroke: #000000; stroke-width: 1.875;"/><text fill="#000000" font-family="sans-serif" font-size="17.5" lengthAdjust="spacingAndGlyphs" textLength="87.5" x="502.5" y="148.9551">数据库存储</text><path d="M527.5,83.9001 C527.5,71.4001 550,71.4001 550,71.4001 C550,71.4001 572.5,71.4001 572.5,83.9001 L572.5,116.4001 C572.5,128.9001 550,128.9001 550,128.9001 C550,128.9001 527.5,128.9001 527.5,116.4001 L527.5,83.9001 " fill="#FEFECE" filter="url(#f8ukrn4s2i1sy)" style="stroke: #000000; stroke-width: 1.875;"/><path d="M527.5,83.9001 C527.5,96.4001 550,96.4001 550,96.4001 C550,96.4001 572.5,96.4001 572.5,83.9001 " fill="none" style="stroke: #000000; stroke-width: 1.875;"/><text fill="#000000" font-family="sans-serif" font-size="17.5" lengthAdjust="spacingAndGlyphs" textLength="87.5" x="502.5" y="649.4781">数据库存储</text><path d="M527.5,665.8234 C527.5,653.3234 550,653.3234 550,653.3234 C550,653.3234 572.5,653.3234 572.5,665.8234 L572.5,698.3234 C572.5,710.8234 550,710.8234 550,710.8234 C550,710.8234 527.5,710.8234 527.5,698.3234 L527.5,665.8234 " fill="#FEFECE" filter="url(#f8ukrn4s2i1sy)" style="stroke: #000000; stroke-width: 1.875;"/><path d="M527.5,665.8234 C527.5,678.3234 550,678.3234 550,678.3234 C550,678.3234 572.5,678.3234 572.5,665.8234 " fill="none" style="stroke: #000000; stroke-width: 1.875;"/><rect fill="#FFFFFF" filter="url(#f8ukrn4s2i1sy)" height="442.8729" style="stroke: #A80036; stroke-width: 1.25;" width="12.5" x="36.25" y="165.3003"/><rect fill="#FFFFFF" filter="url(#f8ukrn4s2i1sy)" height="413.1799" style="stroke: #A80036; stroke-width: 1.25;" width="12.5" x="183.75" y="194.9933"/><rect fill="#FFFFFF" filter="url(#f8ukrn4s2i1sy)" height="175.022" style="stroke: #A80036; stroke-width: 1.25;" width="12.5" x="337.5" y="234.6863"/><rect fill="#FFFFFF" filter="url(#f8ukrn4s2i1sy)" height="79.386" style="stroke: #A80036; stroke-width: 1.25;" width="12.5" x="337.5" y="528.7872"/><rect fill="#FFFFFF" filter="url(#f8ukrn4s2i1sy)" height="39.693" style="stroke: #A80036; stroke-width: 1.25;" width="12.5" x="543.75" y="274.3793"/><rect fill="#FFFFFF" filter="url(#f8ukrn4s2i1sy)" height="39.693" style="stroke: #A80036; stroke-width: 1.25;" width="12.5" x="543.75" y="568.4802"/><polygon fill="#A80036" points="168.75,189.9933,181.25,194.9933,168.75,199.9933,173.75,194.9933" style="stroke: #A80036; stroke-width: 1.25;"/><line style="stroke: #A80036; stroke-width: 1.25;" x1="48.75" x2="176.25" y1="194.9933" y2="194.9933"/><text fill="#000000" font-family="sans-serif" font-size="16.25" lengthAdjust="spacingAndGlyphs" textLength="111.25" x="57.5" y="188.9227">1.发送选课请求</text><polygon fill="#A80036" points="322.5,229.6863,335,234.6863,322.5,239.6863,327.5,234.6863" style="stroke: #A80036; stroke-width: 1.25;"/><line style="stroke: #A80036; stroke-width: 1.25;" x1="196.25" x2="330" y1="234.6863" y2="234.6863"/><text fill="#000000" font-family="sans-serif" font-size="16.25" lengthAdjust="spacingAndGlyphs" textLength="111.25" x="205" y="228.6157">2.发送选课请求</text><polygon fill="#A80036" points="528.75,269.3793,541.25,274.3793,528.75,279.3793,533.75,274.3793" style="stroke: #A80036; stroke-width: 1.25;"/><line style="stroke: #A80036; stroke-width: 1.25;" x1="350" x2="536.25" y1="274.3793" y2="274.3793"/><text fill="#000000" font-family="sans-serif" font-size="16.25" lengthAdjust="spacingAndGlyphs" textLength="111.25" x="358.75" y="268.3087">3.查询课程信息</text><polygon fill="#A80036" points="363.75,309.0723,351.25,314.0723,363.75,319.0723,358.75,314.0723" style="stroke: #A80036; stroke-width: 1.25;"/><line style="stroke: #A80036; stroke-width: 1.25;" x1="356.25" x2="548.75" y1="314.0723" y2="314.0723"/><text fill="#000000" font-family="sans-serif" font-size="16.25" lengthAdjust="spacingAndGlyphs" textLength="111.25" x="371.25" y="308.0017">4.返回课程信息</text><line style="stroke: #A80036; stroke-width: 1.25;" x1="350" x2="402.5" y1="353.7653" y2="353.7653"/><line style="stroke: #A80036; stroke-width: 1.25;" x1="402.5" x2="402.5" y1="353.7653" y2="370.0153"/><line style="stroke: #A80036; stroke-width: 1.25;" x1="351.25" x2="402.5" y1="370.0153" y2="370.0153"/><polygon fill="#A80036" points="363.75,365.0153,351.25,370.0153,363.75,375.0153,358.75,370.0153" style="stroke: #A80036; stroke-width: 1.25;"/><text fill="#000000" font-family="sans-serif" font-size="16.25" lengthAdjust="spacingAndGlyphs" textLength="176.25" x="358.75" y="347.6947">5.判断是否符合选课资格</text><polygon fill="#A80036" points="210,404.7083,197.5,409.7083,210,414.7083,205,409.7083" style="stroke: #A80036; stroke-width: 1.25;"/><line style="stroke: #A80036; stroke-width: 1.25;" x1="202.5" x2="342.5" y1="409.7083" y2="409.7083"/><text fill="#000000" font-family="sans-serif" font-size="16.25" lengthAdjust="spacingAndGlyphs" textLength="111.25" x="217.5" y="403.6377">6.发送确认信息</text><polygon fill="#A80036" points="62.5,444.4012,50,449.4012,62.5,454.4012,57.5,449.4012" style="stroke: #A80036; stroke-width: 1.25;"/><line style="stroke: #A80036; stroke-width: 1.25;" x1="55" x2="182.5" y1="449.4012" y2="449.4012"/><text fill="#000000" font-family="sans-serif" font-size="16.25" lengthAdjust="spacingAndGlyphs" textLength="95" x="70" y="443.3307">7.显示确认框</text><polygon fill="#A80036" points="168.75,484.0942,181.25,489.0942,168.75,494.0942,173.75,489.0942" style="stroke: #A80036; stroke-width: 1.25;"/><line style="stroke: #A80036; stroke-width: 1.25;" x1="48.75" x2="176.25" y1="489.0942" y2="489.0942"/><text fill="#000000" font-family="sans-serif" font-size="16.25" lengthAdjust="spacingAndGlyphs" textLength="78.75" x="57.5" y="483.0237">8.点击确认</text><polygon fill="#A80036" points="322.5,523.7872,335,528.7872,322.5,533.7872,327.5,528.7872" style="stroke: #A80036; stroke-width: 1.25;"/><line style="stroke: #A80036; stroke-width: 1.25;" x1="196.25" x2="330" y1="528.7872" y2="528.7872"/><text fill="#000000" font-family="sans-serif" font-size="16.25" lengthAdjust="spacingAndGlyphs" textLength="111.25" x="205" y="522.7167">9.发送确认信息</text><polygon fill="#A80036" points="528.75,563.4802,541.25,568.4802,528.75,573.4802,533.75,568.4802" style="stroke: #A80036; stroke-width: 1.25;"/><line style="stroke: #A80036; stroke-width: 1.25;" x1="350" x2="536.25" y1="568.4802" y2="568.4802"/><text fill="#000000" font-family="sans-serif" font-size="16.25" lengthAdjust="spacingAndGlyphs" textLength="103.75" x="358.75" y="562.4097">10.更新数据库</text><polygon fill="#A80036" points="56.25,603.1732,43.75,608.1732,56.25,613.1732,51.25,608.1732" style="stroke: #A80036; stroke-width: 1.25;"/><line style="stroke: #A80036; stroke-width: 1.25;" x1="48.75" x2="548.75" y1="608.1732" y2="608.1732"/><text fill="#000000" font-family="sans-serif" font-size="16.25" lengthAdjust="spacingAndGlyphs" textLength="120" x="63.75" y="602.1027">11.返回选课结果</text><!--MD5=[80c69258192da3c9b5a25cd86f5e4b09]
@startuml
title 基于GitHub的实验管理平台- -选课用例的顺序图
actor USERS
activate USERS
USERS -> 选课界面: 1.发送选课请求
activate 选课界面
database 服务器
database 数据库存储
选课界面 -> 服务器:2.发送选课请求
activate 服务器
服务器-> 数据库存储:3.查询课程信息
activate 数据库存储
数据库存储->服务器:4.返回课程信息
deactivate 数据库存储
服务器->服务器:5.判断是否符合选课资格
服务器->选课界面:6.发送确认信息
deactivate 服务器
选课界面->USERS:7.显示确认框
USERS->选课界面:8.点击确认
选课界面 -> 服务器:9.发送确认信息
activate 服务器
服务器-> 数据库存储:10.更新数据库
activate 数据库存储
数据库存储 -> USERS:11.返回选课结果
deactivate 数据库存储
deactivate 服务器
deactivate 选课界面
deactivate USERS

@enduml

PlantUML version 1.2019.11(Sun Sep 22 18:02:15 CST 2019)
(GPL source distribution)
Java Runtime: OpenJDK Runtime Environment
JVM: OpenJDK 64-Bit Server VM
Java Version: 11.0.5+10-b520.38
Operating System: Windows 10
Default Encoding: GBK
Language: zh
Country: CN
--></g></svg>